999
"DXF R12 Output" (www.mydxf.blogspot.com)
 0 
SECTION
 2 
HEADER
 9 
$ACADVER
 1 
AC1009
 9 
$EXTMIN
 10 
 0 
 20 
 0 
 9 
$EXTMAX
 10 
 8.5 
 20 
 11 
 0 
ENDSEC
 0 
SECTION
 2 
ENTITIES
0
LINE
8
Layer 1
10
0.793749
20
841.793749
11
-0.793749
21
840.206251
0
LINE
8
Layer 1
10
0.000000
20
842.322915
11
0.000000
21
839.677085
0
LINE
8
Layer 1
10
2.116664
20
839.941668
11
1.058332
21
838.883336
0
LINE
8
Layer 1
10
1.587498
20
840.470834
11
0.529166
21
839.412502
0
LINE
8
Layer 1
10
1.058332
20
841.000000
11
0.000000
21
839.941668
0
LINE
8
Layer 1
10
0.793749
20
841.793749
11
-0.793749
21
840.206251
0
LINE
8
Layer 1
10
0.000000
20
842.322915
11
0.000000
21
839.677085
0
LINE
8
Layer 1
10
2.116664
20
839.941668
11
1.058332
21
838.883336
0
LINE
8
Layer 1
10
1.587498
20
840.470834
11
0.529166
21
839.412502
0
LINE
8
Layer 1
10
1.058332
20
841.000000
11
0.000000
21
839.941668
0
LINE
8
0
10
111.999225
20
678.499392
11
482.000032
21
678.499392
0
LINE
8
0
10
111.999225
20
678.499392
11
111.999225
21
178.501022
0
LINE
8
0
10
111.999225
20
178.501022
11
482.000032
21
178.501022
0
LINE
8
0
10
482.000032
20
678.499392
11
482.000032
21
178.501022
0
LINE
8
0
10
111.799200
20
178.299939
11
482.198469
21
178.299939
0
LINE
8
0
10
111.799200
20
178.299939
11
111.799200
21
678.700475
0
LINE
8
0
10
111.799200
20
678.700475
11
482.198469
21
678.700475
0
LINE
8
0
10
482.198469
20
178.299939
11
482.198469
21
678.700475
0
LINE
8
0
10
-37.900544
20
818.500020
11
-38.004444
21
819.527592
0
LINE
8
0
10
-38.004444
20
819.527592
11
-38.301799
21
820.484641
0
LINE
8
0
10
-38.301799
20
820.484641
11
-38.772110
21
821.350674
0
LINE
8
0
10
-38.772110
20
821.350674
11
-39.394878
21
822.105199
0
LINE
8
0
10
-39.394878
20
822.105199
11
-40.149603
21
822.727723
0
LINE
8
0
10
-40.149603
20
822.727723
11
-41.015788
21
823.197755
0
LINE
8
0
10
-41.015788
20
823.197755
11
-41.972932
21
823.494802
0
LINE
8
0
10
-41.972932
20
823.494802
11
-43.000537
21
823.598371
0
LINE
8
0
10
-43.000537
20
823.598371
11
-44.028142
21
823.494802
0
LINE
8
0
10
-44.028142
20
823.494802
11
-44.985287
21
823.197755
0
LINE
8
0
10
-44.985287
20
823.197755
11
-45.851471
21
822.727723
0
LINE
8
0
10
-45.851471
20
822.727723
11
-46.606196
21
822.105199
0
LINE
8
0
10
-46.606196
20
822.105199
11
-47.228964
21
821.350674
0
LINE
8
0
10
-47.228964
20
821.350674
11
-47.699275
21
820.484641
0
LINE
8
0
10
-47.699275
20
820.484641
11
-47.996630
21
819.527592
0
LINE
8
0
10
-47.996630
20
819.527592
11
-48.100531
21
818.500020
0
LINE
8
0
10
-48.100531
20
818.500020
11
-47.996630
21
817.472449
0
LINE
8
0
10
-47.996630
20
817.472449
11
-47.699275
21
816.515400
0
LINE
8
0
10
-47.699275
20
816.515400
11
-47.228964
21
815.649367
0
LINE
8
0
10
-47.228964
20
815.649367
11
-46.606196
21
814.894842
0
LINE
8
0
10
-46.606196
20
814.894842
11
-45.851471
21
814.272318
0
LINE
8
0
10
-45.851471
20
814.272318
11
-44.985287
21
813.802286
0
LINE
8
0
10
-44.985287
20
813.802286
11
-44.028142
21
813.505239
0
LINE
8
0
10
-44.028142
20
813.505239
11
-43.000537
21
813.401670
0
LINE
8
0
10
-43.000537
20
813.401670
11
-41.972932
21
813.505239
0
LINE
8
0
10
-41.972932
20
813.505239
11
-41.015788
21
813.802286
0
LINE
8
0
10
-41.015788
20
813.802286
11
-40.149603
21
814.272318
0
LINE
8
0
10
-40.149603
20
814.272318
11
-39.394878
21
814.894842
0
LINE
8
0
10
-39.394878
20
814.894842
11
-38.772110
21
815.649367
0
LINE
8
0
10
-38.772110
20
815.649367
11
-38.301799
21
816.515400
0
LINE
8
0
10
-38.301799
20
816.515400
11
-38.004444
21
817.472449
0
LINE
8
0
10
-38.004444
20
817.472449
11
-37.900544
21
818.500020
0
LINE
8
0
10
-37.900544
20
818.500020
11
-37.900544
21
818.500020
0
LINE
8
0
10
-37.900544
20
22.501033
11
-38.004444
21
23.528605
0
LINE
8
0
10
-38.004444
20
23.528605
11
-38.301799
21
24.485653
0
LINE
8
0
10
-38.301799
20
24.485653
11
-38.772110
21
25.351686
0
LINE
8
0
10
-38.772110
20
25.351686
11
-39.394878
21
26.106211
0
LINE
8
0
10
-39.394878
20
26.106211
11
-40.149603
21
26.728736
0
LINE
8
0
10
-40.149603
20
26.728736
11
-41.015788
21
27.198768
0
LINE
8
0
10
-41.015788
20
27.198768
11
-41.972932
21
27.495814
0
LINE
8
0
10
-41.972932
20
27.495814
11
-43.000537
21
27.599384
0
LINE
8
0
10
-43.000537
20
27.599384
11
-44.028142
21
27.495814
0
LINE
8
0
10
-44.028142
20
27.495814
11
-44.985287
21
27.198768
0
LINE
8
0
10
-44.985287
20
27.198768
11
-45.851471
21
26.728736
0
LINE
8
0
10
-45.851471
20
26.728736
11
-46.606196
21
26.106211
0
LINE
8
0
10
-46.606196
20
26.106211
11
-47.228964
21
25.351686
0
LINE
8
0
10
-47.228964
20
25.351686
11
-47.699275
21
24.485653
0
LINE
8
0
10
-47.699275
20
24.485653
11
-47.996630
21
23.528605
0
LINE
8
0
10
-47.996630
20
23.528605
11
-48.100531
21
22.501033
0
LINE
8
0
10
-48.100531
20
22.501033
11
-47.996630
21
21.473461
0
LINE
8
0
10
-47.996630
20
21.473461
11
-47.699275
21
20.516413
0
LINE
8
0
10
-47.699275
20
20.516413
11
-47.228964
21
19.650380
0
LINE
8
0
10
-47.228964
20
19.650380
11
-46.606196
21
18.895855
0
LINE
8
0
10
-46.606196
20
18.895855
11
-45.851471
21
18.273330
0
LINE
8
0
10
-45.851471
20
18.273330
11
-44.985287
21
17.803298
0
LINE
8
0
10
-44.985287
20
17.803298
11
-44.028142
21
17.506252
0
LINE
8
0
10
-44.028142
20
17.506252
11
-43.000537
21
17.402682
0
LINE
8
0
10
-43.000537
20
17.402682
11
-41.972932
21
17.506252
0
LINE
8
0
10
-41.972932
20
17.506252
11
-41.015788
21
17.803298
0
LINE
8
0
10
-41.015788
20
17.803298
11
-40.149603
21
18.273330
0
LINE
8
0
10
-40.149603
20
18.273330
11
-39.394878
21
18.895855
0
LINE
8
0
10
-39.394878
20
18.895855
11
-38.772110
21
19.650380
0
LINE
8
0
10
-38.772110
20
19.650380
11
-38.301799
21
20.516413
0
LINE
8
0
10
-38.301799
20
20.516413
11
-38.004444
21
21.473461
0
LINE
8
0
10
-38.004444
20
21.473461
11
-37.900544
21
22.501033
0
LINE
8
0
10
-37.900544
20
22.501033
11
-37.900544
21
22.501033
0
LINE
8
0
10
642.098597
20
818.500020
11
641.994983
21
819.527847
0
LINE
8
0
10
641.994983
20
819.527847
11
641.697814
21
820.485169
0
LINE
8
0
10
641.697814
20
820.485169
11
641.227597
21
821.351476
0
LINE
8
0
10
641.227597
20
821.351476
11
640.604842
21
822.106262
0
LINE
8
0
10
640.604842
20
822.106262
11
639.850057
21
822.729017
0
LINE
8
0
10
639.850057
20
822.729017
11
638.983749
21
823.199233
0
LINE
8
0
10
638.983749
20
823.199233
11
638.026428
21
823.496402
0
LINE
8
0
10
638.026428
20
823.496402
11
636.998601
21
823.600016
0
LINE
8
0
10
636.998601
20
823.600016
11
635.970774
21
823.496402
0
LINE
8
0
10
635.970774
20
823.496402
11
635.013452
21
823.199233
0
LINE
8
0
10
635.013452
20
823.199233
11
634.147145
21
822.729017
0
LINE
8
0
10
634.147145
20
822.729017
11
633.392359
21
822.106262
0
LINE
8
0
10
633.392359
20
822.106262
11
632.769604
21
821.351476
0
LINE
8
0
10
632.769604
20
821.351476
11
632.299388
21
820.485169
0
LINE
8
0
10
632.299388
20
820.485169
11
632.002219
21
819.527847
0
LINE
8
0
10
632.002219
20
819.527847
11
631.898605
21
818.500020
0
LINE
8
0
10
631.898605
20
818.500020
11
632.002219
21
817.472193
0
LINE
8
0
10
632.002219
20
817.472193
11
632.299388
21
816.514872
0
LINE
8
0
10
632.299388
20
816.514872
11
632.769604
21
815.648564
0
LINE
8
0
10
632.769604
20
815.648564
11
633.392359
21
814.893779
0
LINE
8
0
10
633.392359
20
814.893779
11
634.147145
21
814.271024
0
LINE
8
0
10
634.147145
20
814.271024
11
635.013452
21
813.800808
0
LINE
8
0
10
635.013452
20
813.800808
11
635.970774
21
813.503639
0
LINE
8
0
10
635.970774
20
813.503639
11
636.998601
21
813.400025
0
LINE
8
0
10
636.998601
20
813.400025
11
638.026428
21
813.503639
0
LINE
8
0
10
638.026428
20
813.503639
11
638.983749
21
813.800808
0
LINE
8
0
10
638.983749
20
813.800808
11
639.850057
21
814.271024
0
LINE
8
0
10
639.850057
20
814.271024
11
640.604842
21
814.893779
0
LINE
8
0
10
640.604842
20
814.893779
11
641.227597
21
815.648564
0
LINE
8
0
10
641.227597
20
815.648564
11
641.697814
21
816.514872
0
LINE
8
0
10
641.697814
20
816.514872
11
641.994983
21
817.472193
0
LINE
8
0
10
641.994983
20
817.472193
11
642.098597
21
818.500020
0
LINE
8
0
10
642.098597
20
818.500020
11
642.098597
21
818.500020
0
LINE
8
0
10
642.098597
20
22.501033
11
641.994983
21
23.528860
0
LINE
8
0
10
641.994983
20
23.528860
11
641.697814
21
24.486181
0
LINE
8
0
10
641.697814
20
24.486181
11
641.227597
21
25.352489
0
LINE
8
0
10
641.227597
20
25.352489
11
640.604842
21
26.107274
0
LINE
8
0
10
640.604842
20
26.107274
11
639.850057
21
26.730029
0
LINE
8
0
10
639.850057
20
26.730029
11
638.983749
21
27.200246
0
LINE
8
0
10
638.983749
20
27.200246
11
638.026428
21
27.497415
0
LINE
8
0
10
638.026428
20
27.497415
11
636.998601
21
27.601029
0
LINE
8
0
10
636.998601
20
27.601029
11
635.970774
21
27.497415
0
LINE
8
0
10
635.970774
20
27.497415
11
635.013452
21
27.200246
0
LINE
8
0
10
635.013452
20
27.200246
11
634.147145
21
26.730029
0
LINE
8
0
10
634.147145
20
26.730029
11
633.392359
21
26.107274
0
LINE
8
0
10
633.392359
20
26.107274
11
632.769604
21
25.352489
0
LINE
8
0
10
632.769604
20
25.352489
11
632.299388
21
24.486181
0
LINE
8
0
10
632.299388
20
24.486181
11
632.002219
21
23.528860
0
LINE
8
0
10
632.002219
20
23.528860
11
631.898605
21
22.501033
0
LINE
8
0
10
631.898605
20
22.501033
11
632.002219
21
21.473206
0
LINE
8
0
10
632.002219
20
21.473206
11
632.299388
21
20.515885
0
LINE
8
0
10
632.299388
20
20.515885
11
632.769604
21
19.649577
0
LINE
8
0
10
632.769604
20
19.649577
11
633.392359
21
18.894792
0
LINE
8
0
10
633.392359
20
18.894792
11
634.147145
21
18.272037
0
LINE
8
0
10
634.147145
20
18.272037
11
635.013452
21
17.801821
0
LINE
8
0
10
635.013452
20
17.801821
11
635.970774
21
17.504651
0
LINE
8
0
10
635.970774
20
17.504651
11
636.998601
21
17.401038
0
LINE
8
0
10
636.998601
20
17.401038
11
638.026428
21
17.504651
0
LINE
8
0
10
638.026428
20
17.504651
11
638.983749
21
17.801821
0
LINE
8
0
10
638.983749
20
17.801821
11
639.850057
21
18.272037
0
LINE
8
0
10
639.850057
20
18.272037
11
640.604842
21
18.894792
0
LINE
8
0
10
640.604842
20
18.894792
11
641.227597
21
19.649577
0
LINE
8
0
10
641.227597
20
19.649577
11
641.697814
21
20.515885
0
LINE
8
0
10
641.697814
20
20.515885
11
641.994983
21
21.473206
0
LINE
8
0
10
641.994983
20
21.473206
11
642.098597
21
22.501033
0
LINE
8
0
10
642.098597
20
22.501033
11
642.098597
21
22.501033
0
LINE
8
0
10
141.999228
20
198.500798
11
141.795662
21
200.515787
0
LINE
8
0
10
141.795662
20
200.515787
11
141.212717
21
202.392506
0
LINE
8
0
10
141.212717
20
202.392506
11
140.290592
21
204.090763
0
LINE
8
0
10
140.290592
20
204.090763
11
139.069486
21
205.570370
0
LINE
8
0
10
139.069486
20
205.570370
11
137.589599
21
206.791135
0
LINE
8
0
10
137.589599
20
206.791135
11
135.891129
21
207.712870
0
LINE
8
0
10
135.891129
20
207.712870
11
134.014277
21
208.295383
0
LINE
8
0
10
134.014277
20
208.295383
11
131.999240
21
208.498485
0
LINE
8
0
10
131.999240
20
208.498485
11
129.984204
21
208.295383
0
LINE
8
0
10
129.984204
20
208.295383
11
128.107352
21
207.712870
0
LINE
8
0
10
128.107352
20
207.712870
11
126.408882
21
206.791135
0
LINE
8
0
10
126.408882
20
206.791135
11
124.928995
21
205.570370
0
LINE
8
0
10
124.928995
20
205.570370
11
123.707889
21
204.090763
0
LINE
8
0
10
123.707889
20
204.090763
11
122.785764
21
202.392506
0
LINE
8
0
10
122.785764
20
202.392506
11
122.202819
21
200.515787
0
LINE
8
0
10
122.202819
20
200.515787
11
121.999253
21
198.500798
0
LINE
8
0
10
121.999253
20
198.500798
11
122.202819
21
196.485809
0
LINE
8
0
10
122.202819
20
196.485809
11
122.785764
21
194.609090
0
LINE
8
0
10
122.785764
20
194.609090
11
123.707889
21
192.910833
0
LINE
8
0
10
123.707889
20
192.910833
11
124.928995
21
191.431226
0
LINE
8
0
10
124.928995
20
191.431226
11
126.408882
21
190.210461
0
LINE
8
0
10
126.408882
20
190.210461
11
128.107352
21
189.288726
0
LINE
8
0
10
128.107352
20
189.288726
11
129.984204
21
188.706213
0
LINE
8
0
10
129.984204
20
188.706213
11
131.999240
21
188.503111
0
LINE
8
0
10
131.999240
20
188.503111
11
134.014277
21
188.706213
0
LINE
8
0
10
134.014277
20
188.706213
11
135.891129
21
189.288726
0
LINE
8
0
10
135.891129
20
189.288726
11
137.589599
21
190.210461
0
LINE
8
0
10
137.589599
20
190.210461
11
139.069486
21
191.431226
0
LINE
8
0
10
139.069486
20
191.431226
11
140.290592
21
192.910833
0
LINE
8
0
10
140.290592
20
192.910833
11
141.212717
21
194.609090
0
LINE
8
0
10
141.212717
20
194.609090
11
141.795662
21
196.485809
0
LINE
8
0
10
141.795662
20
196.485809
11
141.999228
21
198.500798
0
LINE
8
0
10
141.999228
20
198.500798
11
141.999228
21
198.500798
0
LINE
8
0
10
141.999228
20
658.500225
11
141.795662
21
660.515214
0
LINE
8
0
10
141.795662
20
660.515214
11
141.212717
21
662.391932
0
LINE
8
0
10
141.212717
20
662.391932
11
140.290592
21
664.090190
0
LINE
8
0
10
140.290592
20
664.090190
11
139.069486
21
665.569796
0
LINE
8
0
10
139.069486
20
665.569796
11
137.589599
21
666.790562
0
LINE
8
0
10
137.589599
20
666.790562
11
135.891129
21
667.712296
0
LINE
8
0
10
135.891129
20
667.712296
11
134.014277
21
668.294809
0
LINE
8
0
10
134.014277
20
668.294809
11
131.999240
21
668.497912
0
LINE
8
0
10
131.999240
20
668.497912
11
129.984204
21
668.294809
0
LINE
8
0
10
129.984204
20
668.294809
11
128.107352
21
667.712296
0
LINE
8
0
10
128.107352
20
667.712296
11
126.408882
21
666.790562
0
LINE
8
0
10
126.408882
20
666.790562
11
124.928995
21
665.569796
0
LINE
8
0
10
124.928995
20
665.569796
11
123.707889
21
664.090190
0
LINE
8
0
10
123.707889
20
664.090190
11
122.785764
21
662.391932
0
LINE
8
0
10
122.785764
20
662.391932
11
122.202819
21
660.515214
0
LINE
8
0
10
122.202819
20
660.515214
11
121.999253
21
658.500225
0
LINE
8
0
10
121.999253
20
658.500225
11
122.202819
21
656.485235
0
LINE
8
0
10
122.202819
20
656.485235
11
122.785764
21
654.608517
0
LINE
8
0
10
122.785764
20
654.608517
11
123.707889
21
652.910259
0
LINE
8
0
10
123.707889
20
652.910259
11
124.928995
21
651.430653
0
LINE
8
0
10
124.928995
20
651.430653
11
126.408882
21
650.209887
0
LINE
8
0
10
126.408882
20
650.209887
11
128.107352
21
649.288153
0
LINE
8
0
10
128.107352
20
649.288153
11
129.984204
21
648.705640
0
LINE
8
0
10
129.984204
20
648.705640
11
131.999240
21
648.502537
0
LINE
8
0
10
131.999240
20
648.502537
11
134.014277
21
648.705640
0
LINE
8
0
10
134.014277
20
648.705640
11
135.891129
21
649.288153
0
LINE
8
0
10
135.891129
20
649.288153
11
137.589599
21
650.209887
0
LINE
8
0
10
137.589599
20
650.209887
11
139.069486
21
651.430653
0
LINE
8
0
10
139.069486
20
651.430653
11
140.290592
21
652.910259
0
LINE
8
0
10
140.290592
20
652.910259
11
141.212717
21
654.608517
0
LINE
8
0
10
141.212717
20
654.608517
11
141.795662
21
656.485235
0
LINE
8
0
10
141.795662
20
656.485235
11
141.999228
21
658.500225
0
LINE
8
0
10
141.999228
20
658.500225
11
141.999228
21
658.500225
0
LINE
8
0
10
271.999076
20
658.500225
11
271.911135
21
659.824820
0
LINE
8
0
10
271.911135
20
659.824820
11
271.652922
21
661.109400
0
LINE
8
0
10
271.652922
20
661.109400
11
271.232849
21
662.339392
0
LINE
8
0
10
271.232849
20
662.339392
11
270.659331
21
663.500222
0
LINE
8
0
10
270.659331
20
663.500222
11
269.940781
21
664.577319
0
LINE
8
0
10
269.940781
20
664.577319
11
269.085613
21
665.556108
0
LINE
8
0
10
269.085613
20
665.556108
11
268.102241
21
666.422018
0
LINE
8
0
10
268.102241
20
666.422018
11
266.999079
21
667.160474
0
LINE
8
0
10
266.999079
20
667.160474
11
265.807975
21
667.746613
0
LINE
8
0
10
265.807975
20
667.746613
11
264.566389
21
668.165283
0
LINE
8
0
10
264.566389
20
668.165283
11
263.291149
21
668.416486
0
LINE
8
0
10
263.291149
20
668.416486
11
261.999081
21
668.500220
0
LINE
8
0
10
261.999081
20
668.500220
11
260.707013
21
668.416486
0
LINE
8
0
10
260.707013
20
668.416486
11
259.431773
21
668.165283
0
LINE
8
0
10
259.431773
20
668.165283
11
258.190187
21
667.746613
0
LINE
8
0
10
258.190187
20
667.746613
11
256.999084
21
667.160474
0
LINE
8
0
10
256.999084
20
667.160474
11
255.895921
21
666.422018
0
LINE
8
0
10
255.895921
20
666.422018
11
254.912549
21
665.556108
0
LINE
8
0
10
254.912549
20
665.556108
11
254.057381
21
664.577319
0
LINE
8
0
10
254.057381
20
664.577319
11
253.338831
21
663.500222
0
LINE
8
0
10
253.338831
20
663.500222
11
252.765313
21
662.339392
0
LINE
8
0
10
252.765313
20
662.339392
11
252.345240
21
661.109400
0
LINE
8
0
10
252.345240
20
661.109400
11
252.087027
21
659.824820
0
LINE
8
0
10
252.087027
20
659.824820
11
251.999086
21
658.500225
0
LINE
8
0
10
251.999086
20
658.500225
11
252.087027
21
657.175629
0
LINE
8
0
10
252.087027
20
657.175629
11
252.345240
21
655.891049
0
LINE
8
0
10
252.345240
20
655.891049
11
252.765313
21
654.661057
0
LINE
8
0
10
252.765313
20
654.661057
11
253.338831
21
653.500227
0
LINE
8
0
10
253.338831
20
653.500227
11
254.057381
21
652.423130
0
LINE
8
0
10
254.057381
20
652.423130
11
254.912549
21
651.444341
0
LINE
8
0
10
254.912549
20
651.444341
11
255.895921
21
650.578431
0
LINE
8
0
10
255.895921
20
650.578431
11
256.999084
21
649.839975
0
LINE
8
0
10
256.999084
20
649.839975
11
258.190187
21
649.253836
0
LINE
8
0
10
258.190187
20
649.253836
11
259.431773
21
648.835166
0
LINE
8
0
10
259.431773
20
648.835166
11
260.707013
21
648.583963
0
LINE
8
0
10
260.707013
20
648.583963
11
261.999081
21
648.500229
0
LINE
8
0
10
261.999081
20
648.500229
11
263.291149
21
648.583963
0
LINE
8
0
10
263.291149
20
648.583963
11
264.566389
21
648.835166
0
LINE
8
0
10
264.566389
20
648.835166
11
265.807975
21
649.253836
0
LINE
8
0
10
265.807975
20
649.253836
11
266.999079
21
649.839975
0
LINE
8
0
10
266.999079
20
649.839975
11
268.102241
21
650.578431
0
LINE
8
0
10
268.102241
20
650.578431
11
269.085613
21
651.444341
0
LINE
8
0
10
269.085613
20
651.444341
11
269.940781
21
652.423130
0
LINE
8
0
10
269.940781
20
652.423130
11
270.659331
21
653.500227
0
LINE
8
0
10
270.659331
20
653.500227
11
271.232849
21
654.661057
0
LINE
8
0
10
271.232849
20
654.661057
11
271.652922
21
655.891049
0
LINE
8
0
10
271.652922
20
655.891049
11
271.911135
21
657.175629
0
LINE
8
0
10
271.911135
20
657.175629
11
271.999076
21
658.500225
0
LINE
8
0
10
271.999076
20
658.500225
11
271.999076
21
658.500225
0
LINE
8
0
10
341.998980
20
658.500225
11
341.911039
21
659.824820
0
LINE
8
0
10
341.911039
20
659.824820
11
341.652826
21
661.109399
0
LINE
8
0
10
341.652826
20
661.109399
11
341.232753
21
662.339391
0
LINE
8
0
10
341.232753
20
662.339391
11
340.659235
21
663.500221
0
LINE
8
0
10
340.659235
20
663.500221
11
339.940686
21
664.577318
0
LINE
8
0
10
339.940686
20
664.577318
11
339.085518
21
665.556107
0
LINE
8
0
10
339.085518
20
665.556107
11
338.102146
21
666.422017
0
LINE
8
0
10
338.102146
20
666.422017
11
336.998983
21
667.160473
0
LINE
8
0
10
336.998983
20
667.160473
11
335.807880
21
667.746612
0
LINE
8
0
10
335.807880
20
667.746612
11
334.566294
21
668.165282
0
LINE
8
0
10
334.566294
20
668.165282
11
333.291054
21
668.416484
0
LINE
8
0
10
333.291054
20
668.416484
11
331.998987
21
668.500218
0
LINE
8
0
10
331.998987
20
668.500218
11
330.706919
21
668.416484
0
LINE
8
0
10
330.706919
20
668.416484
11
329.431679
21
668.165282
0
LINE
8
0
10
329.431679
20
668.165282
11
328.190093
21
667.746612
0
LINE
8
0
10
328.190093
20
667.746612
11
326.998990
21
667.160473
0
LINE
8
0
10
326.998990
20
667.160473
11
325.895827
21
666.422017
0
LINE
8
0
10
325.895827
20
666.422017
11
324.912455
21
665.556107
0
LINE
8
0
10
324.912455
20
665.556107
11
324.057287
21
664.577318
0
LINE
8
0
10
324.057287
20
664.577318
11
323.338738
21
663.500221
0
LINE
8
0
10
323.338738
20
663.500221
11
322.765220
21
662.339391
0
LINE
8
0
10
322.765220
20
662.339391
11
322.345147
21
661.109399
0
LINE
8
0
10
322.345147
20
661.109399
11
322.086934
21
659.824820
0
LINE
8
0
10
322.086934
20
659.824820
11
321.998993
21
658.500225
0
LINE
8
0
10
321.998993
20
658.500225
11
322.086934
21
657.175629
0
LINE
8
0
10
322.086934
20
657.175629
11
322.345147
21
655.891050
0
LINE
8
0
10
322.345147
20
655.891050
11
322.765220
21
654.661058
0
LINE
8
0
10
322.765220
20
654.661058
11
323.338738
21
653.500228
0
LINE
8
0
10
323.338738
20
653.500228
11
324.057287
21
652.423131
0
LINE
8
0
10
324.057287
20
652.423131
11
324.912455
21
651.444342
0
LINE
8
0
10
324.912455
20
651.444342
11
325.895827
21
650.578432
0
LINE
8
0
10
325.895827
20
650.578432
11
326.998990
21
649.839976
0
LINE
8
0
10
326.998990
20
649.839976
11
328.190093
21
649.253837
0
LINE
8
0
10
328.190093
20
649.253837
11
329.431679
21
648.835167
0
LINE
8
0
10
329.431679
20
648.835167
11
330.706919
21
648.583965
0
LINE
8
0
10
330.706919
20
648.583965
11
331.998987
21
648.500231
0
LINE
8
0
10
331.998987
20
648.500231
11
333.291054
21
648.583965
0
LINE
8
0
10
333.291054
20
648.583965
11
334.566294
21
648.835167
0
LINE
8
0
10
334.566294
20
648.835167
11
335.807880
21
649.253837
0
LINE
8
0
10
335.807880
20
649.253837
11
336.998983
21
649.839976
0
LINE
8
0
10
336.998983
20
649.839976
11
338.102146
21
650.578432
0
LINE
8
0
10
338.102146
20
650.578432
11
339.085518
21
651.444342
0
LINE
8
0
10
339.085518
20
651.444342
11
339.940686
21
652.423131
0
LINE
8
0
10
339.940686
20
652.423131
11
340.659235
21
653.500228
0
LINE
8
0
10
340.659235
20
653.500228
11
341.232753
21
654.661058
0
LINE
8
0
10
341.232753
20
654.661058
11
341.652826
21
655.891050
0
LINE
8
0
10
341.652826
20
655.891050
11
341.911039
21
657.175629
0
LINE
8
0
10
341.911039
20
657.175629
11
341.998980
21
658.500225
0
LINE
8
0
10
341.998980
20
658.500225
11
341.998980
21
658.500225
0
LINE
8
0
10
471.998821
20
658.500225
11
471.910880
21
659.824820
0
LINE
8
0
10
471.910880
20
659.824820
11
471.652667
21
661.109399
0
LINE
8
0
10
471.652667
20
661.109399
11
471.232594
21
662.339391
0
LINE
8
0
10
471.232594
20
662.339391
11
470.659076
21
663.500221
0
LINE
8
0
10
470.659076
20
663.500221
11
469.940526
21
664.577318
0
LINE
8
0
10
469.940526
20
664.577318
11
469.085359
21
665.556107
0
LINE
8
0
10
469.085359
20
665.556107
11
468.101987
21
666.422017
0
LINE
8
0
10
468.101987
20
666.422017
11
466.998824
21
667.160473
0
LINE
8
0
10
466.998824
20
667.160473
11
465.807721
21
667.746612
0
LINE
8
0
10
465.807721
20
667.746612
11
464.566135
21
668.165282
0
LINE
8
0
10
464.566135
20
668.165282
11
463.290895
21
668.416484
0
LINE
8
0
10
463.290895
20
668.416484
11
461.998827
21
668.500218
0
LINE
8
0
10
461.998827
20
668.500218
11
460.706760
21
668.416484
0
LINE
8
0
10
460.706760
20
668.416484
11
459.431519
21
668.165282
0
LINE
8
0
10
459.431519
20
668.165282
11
458.189934
21
667.746612
0
LINE
8
0
10
458.189934
20
667.746612
11
456.998830
21
667.160473
0
LINE
8
0
10
456.998830
20
667.160473
11
455.895668
21
666.422017
0
LINE
8
0
10
455.895668
20
666.422017
11
454.912296
21
665.556107
0
LINE
8
0
10
454.912296
20
665.556107
11
454.057128
21
664.577318
0
LINE
8
0
10
454.057128
20
664.577318
11
453.338579
21
663.500221
0
LINE
8
0
10
453.338579
20
663.500221
11
452.765061
21
662.339391
0
LINE
8
0
10
452.765061
20
662.339391
11
452.344988
21
661.109399
0
LINE
8
0
10
452.344988
20
661.109399
11
452.086774
21
659.824820
0
LINE
8
0
10
452.086774
20
659.824820
11
451.998833
21
658.500225
0
LINE
8
0
10
451.998833
20
658.500225
11
452.201998
21
656.484877
0
LINE
8
0
10
452.201998
20
656.484877
11
452.784683
21
654.607776
0
LINE
8
0
10
452.784683
20
654.607776
11
453.706676
21
652.909133
0
LINE
8
0
10
453.706676
20
652.909133
11
454.927764
21
651.429162
0
LINE
8
0
10
454.927764
20
651.429162
11
456.407736
21
650.208073
0
LINE
8
0
10
456.407736
20
650.208073
11
458.106379
21
649.286080
0
LINE
8
0
10
458.106379
20
649.286080
11
459.983480
21
648.703396
0
LINE
8
0
10
459.983480
20
648.703396
11
461.998827
21
648.500231
0
LINE
8
0
10
461.998827
20
648.500231
11
464.014175
21
648.703396
0
LINE
8
0
10
464.014175
20
648.703396
11
465.891276
21
649.286080
0
LINE
8
0
10
465.891276
20
649.286080
11
467.589919
21
650.208073
0
LINE
8
0
10
467.589919
20
650.208073
11
469.069891
21
651.429162
0
LINE
8
0
10
469.069891
20
651.429162
11
470.290979
21
652.909133
0
LINE
8
0
10
470.290979
20
652.909133
11
471.212972
21
654.607776
0
LINE
8
0
10
471.212972
20
654.607776
11
471.795657
21
656.484877
0
LINE
8
0
10
471.795657
20
656.484877
11
471.998821
21
658.500225
0
LINE
8
0
10
471.998821
20
658.500225
11
471.998821
21
658.500225
0
LINE
8
0
10
471.998821
20
198.500798
11
471.910880
21
199.825393
0
LINE
8
0
10
471.910880
20
199.825393
11
471.652667
21
201.109973
0
LINE
8
0
10
471.652667
20
201.109973
11
471.232594
21
202.339964
0
LINE
8
0
10
471.232594
20
202.339964
11
470.659076
21
203.500795
0
LINE
8
0
10
470.659076
20
203.500795
11
469.940526
21
204.577891
0
LINE
8
0
10
469.940526
20
204.577891
11
469.085359
21
205.556681
0
LINE
8
0
10
469.085359
20
205.556681
11
468.101987
21
206.422590
0
LINE
8
0
10
468.101987
20
206.422590
11
466.998824
21
207.161047
0
LINE
8
0
10
466.998824
20
207.161047
11
465.807721
21
207.747185
0
LINE
8
0
10
465.807721
20
207.747185
11
464.566135
21
208.165856
0
LINE
8
0
10
464.566135
20
208.165856
11
463.290895
21
208.417058
0
LINE
8
0
10
463.290895
20
208.417058
11
461.998827
21
208.500792
0
LINE
8
0
10
461.998827
20
208.500792
11
460.706760
21
208.417058
0
LINE
8
0
10
460.706760
20
208.417058
11
459.431519
21
208.165856
0
LINE
8
0
10
459.431519
20
208.165856
11
458.189934
21
207.747185
0
LINE
8
0
10
458.189934
20
207.747185
11
456.998830
21
207.161047
0
LINE
8
0
10
456.998830
20
207.161047
11
455.895668
21
206.422590
0
LINE
8
0
10
455.895668
20
206.422590
11
454.912296
21
205.556681
0
LINE
8
0
10
454.912296
20
205.556681
11
454.057128
21
204.577891
0
LINE
8
0
10
454.057128
20
204.577891
11
453.338579
21
203.500795
0
LINE
8
0
10
453.338579
20
203.500795
11
452.765061
21
202.339964
0
LINE
8
0
10
452.765061
20
202.339964
11
452.344988
21
201.109973
0
LINE
8
0
10
452.344988
20
201.109973
11
452.086774
21
199.825393
0
LINE
8
0
10
452.086774
20
199.825393
11
451.998833
21
198.500798
0
LINE
8
0
10
451.998833
20
198.500798
11
452.201998
21
196.485451
0
LINE
8
0
10
452.201998
20
196.485451
11
452.784683
21
194.608349
0
LINE
8
0
10
452.784683
20
194.608349
11
453.706676
21
192.909707
0
LINE
8
0
10
453.706676
20
192.909707
11
454.927764
21
191.429735
0
LINE
8
0
10
454.927764
20
191.429735
11
456.407736
21
190.208647
0
LINE
8
0
10
456.407736
20
190.208647
11
458.106379
21
189.286654
0
LINE
8
0
10
458.106379
20
189.286654
11
459.983480
21
188.703969
0
LINE
8
0
10
459.983480
20
188.703969
11
461.998827
21
188.500805
0
LINE
8
0
10
461.998827
20
188.500805
11
464.014175
21
188.703969
0
LINE
8
0
10
464.014175
20
188.703969
11
465.891276
21
189.286654
0
LINE
8
0
10
465.891276
20
189.286654
11
467.589919
21
190.208647
0
LINE
8
0
10
467.589919
20
190.208647
11
469.069891
21
191.429735
0
LINE
8
0
10
469.069891
20
191.429735
11
470.290979
21
192.909707
0
LINE
8
0
10
470.290979
20
192.909707
11
471.212972
21
194.608349
0
LINE
8
0
10
471.212972
20
194.608349
11
471.795657
21
196.485451
0
LINE
8
0
10
471.795657
20
196.485451
11
471.998821
21
198.500798
0
LINE
8
0
10
471.998821
20
198.500798
11
471.998821
21
198.500798
0
LINE
8
0
10
341.998980
20
198.500798
11
341.911039
21
199.825393
0
LINE
8
0
10
341.911039
20
199.825393
11
341.652826
21
201.109973
0
LINE
8
0
10
341.652826
20
201.109973
11
341.232753
21
202.339964
0
LINE
8
0
10
341.232753
20
202.339964
11
340.659235
21
203.500795
0
LINE
8
0
10
340.659235
20
203.500795
11
339.940686
21
204.577891
0
LINE
8
0
10
339.940686
20
204.577891
11
339.085518
21
205.556681
0
LINE
8
0
10
339.085518
20
205.556681
11
338.102146
21
206.422590
0
LINE
8
0
10
338.102146
20
206.422590
11
336.998983
21
207.161047
0
LINE
8
0
10
336.998983
20
207.161047
11
335.807880
21
207.747185
0
LINE
8
0
10
335.807880
20
207.747185
11
334.566294
21
208.165856
0
LINE
8
0
10
334.566294
20
208.165856
11
333.291054
21
208.417058
0
LINE
8
0
10
333.291054
20
208.417058
11
331.998987
21
208.500792
0
LINE
8
0
10
331.998987
20
208.500792
11
330.706919
21
208.417058
0
LINE
8
0
10
330.706919
20
208.417058
11
329.431679
21
208.165856
0
LINE
8
0
10
329.431679
20
208.165856
11
328.190093
21
207.747185
0
LINE
8
0
10
328.190093
20
207.747185
11
326.998990
21
207.161047
0
LINE
8
0
10
326.998990
20
207.161047
11
325.895827
21
206.422590
0
LINE
8
0
10
325.895827
20
206.422590
11
324.912455
21
205.556681
0
LINE
8
0
10
324.912455
20
205.556681
11
324.057287
21
204.577891
0
LINE
8
0
10
324.057287
20
204.577891
11
323.338738
21
203.500795
0
LINE
8
0
10
323.338738
20
203.500795
11
322.765220
21
202.339964
0
LINE
8
0
10
322.765220
20
202.339964
11
322.345147
21
201.109973
0
LINE
8
0
10
322.345147
20
201.109973
11
322.086934
21
199.825393
0
LINE
8
0
10
322.086934
20
199.825393
11
321.998993
21
198.500798
0
LINE
8
0
10
321.998993
20
198.500798
11
322.086934
21
197.176203
0
LINE
8
0
10
322.086934
20
197.176203
11
322.345147
21
195.891623
0
LINE
8
0
10
322.345147
20
195.891623
11
322.765220
21
194.661631
0
LINE
8
0
10
322.765220
20
194.661631
11
323.338738
21
193.500801
0
LINE
8
0
10
323.338738
20
193.500801
11
324.057287
21
192.423705
0
LINE
8
0
10
324.057287
20
192.423705
11
324.912455
21
191.444915
0
LINE
8
0
10
324.912455
20
191.444915
11
325.895827
21
190.579006
0
LINE
8
0
10
325.895827
20
190.579006
11
326.998990
21
189.840549
0
LINE
8
0
10
326.998990
20
189.840549
11
328.190093
21
189.254411
0
LINE
8
0
10
328.190093
20
189.254411
11
329.431679
21
188.835740
0
LINE
8
0
10
329.431679
20
188.835740
11
330.706919
21
188.584538
0
LINE
8
0
10
330.706919
20
188.584538
11
331.998987
21
188.500804
0
LINE
8
0
10
331.998987
20
188.500804
11
333.291054
21
188.584538
0
LINE
8
0
10
333.291054
20
188.584538
11
334.566294
21
188.835740
0
LINE
8
0
10
334.566294
20
188.835740
11
335.807880
21
189.254411
0
LINE
8
0
10
335.807880
20
189.254411
11
336.998983
21
189.840549
0
LINE
8
0
10
336.998983
20
189.840549
11
338.102146
21
190.579006
0
LINE
8
0
10
338.102146
20
190.579006
11
339.085518
21
191.444915
0
LINE
8
0
10
339.085518
20
191.444915
11
339.940686
21
192.423705
0
LINE
8
0
10
339.940686
20
192.423705
11
340.659235
21
193.500801
0
LINE
8
0
10
340.659235
20
193.500801
11
341.232753
21
194.661631
0
LINE
8
0
10
341.232753
20
194.661631
11
341.652826
21
195.891623
0
LINE
8
0
10
341.652826
20
195.891623
11
341.911039
21
197.176203
0
LINE
8
0
10
341.911039
20
197.176203
11
341.998980
21
198.500798
0
LINE
8
0
10
341.998980
20
198.500798
11
341.998980
21
198.500798
0
LINE
8
0
10
271.999076
20
198.500798
11
271.911135
21
199.825393
0
LINE
8
0
10
271.911135
20
199.825393
11
271.652922
21
201.109973
0
LINE
8
0
10
271.652922
20
201.109973
11
271.232849
21
202.339965
0
LINE
8
0
10
271.232849
20
202.339965
11
270.659331
21
203.500796
0
LINE
8
0
10
270.659331
20
203.500796
11
269.940781
21
204.577892
0
LINE
8
0
10
269.940781
20
204.577892
11
269.085613
21
205.556682
0
LINE
8
0
10
269.085613
20
205.556682
11
268.102241
21
206.422591
0
LINE
8
0
10
268.102241
20
206.422591
11
266.999079
21
207.161048
0
LINE
8
0
10
266.999079
20
207.161048
11
265.807975
21
207.747186
0
LINE
8
0
10
265.807975
20
207.747186
11
264.566389
21
208.165857
0
LINE
8
0
10
264.566389
20
208.165857
11
263.291149
21
208.417059
0
LINE
8
0
10
263.291149
20
208.417059
11
261.999081
21
208.500793
0
LINE
8
0
10
261.999081
20
208.500793
11
260.707013
21
208.417059
0
LINE
8
0
10
260.707013
20
208.417059
11
259.431773
21
208.165857
0
LINE
8
0
10
259.431773
20
208.165857
11
258.190187
21
207.747186
0
LINE
8
0
10
258.190187
20
207.747186
11
256.999084
21
207.161048
0
LINE
8
0
10
256.999084
20
207.161048
11
255.895921
21
206.422591
0
LINE
8
0
10
255.895921
20
206.422591
11
254.912549
21
205.556682
0
LINE
8
0
10
254.912549
20
205.556682
11
254.057381
21
204.577892
0
LINE
8
0
10
254.057381
20
204.577892
11
253.338831
21
203.500796
0
LINE
8
0
10
253.338831
20
203.500796
11
252.765313
21
202.339965
0
LINE
8
0
10
252.765313
20
202.339965
11
252.345240
21
201.109973
0
LINE
8
0
10
252.345240
20
201.109973
11
252.087027
21
199.825393
0
LINE
8
0
10
252.087027
20
199.825393
11
251.999086
21
198.500798
0
LINE
8
0
10
251.999086
20
198.500798
11
252.087027
21
197.176203
0
LINE
8
0
10
252.087027
20
197.176203
11
252.345240
21
195.891623
0
LINE
8
0
10
252.345240
20
195.891623
11
252.765313
21
194.661631
0
LINE
8
0
10
252.765313
20
194.661631
11
253.338831
21
193.500800
0
LINE
8
0
10
253.338831
20
193.500800
11
254.057381
21
192.423704
0
LINE
8
0
10
254.057381
20
192.423704
11
254.912549
21
191.444914
0
LINE
8
0
10
254.912549
20
191.444914
11
255.895921
21
190.579005
0
LINE
8
0
10
255.895921
20
190.579005
11
256.999084
21
189.840548
0
LINE
8
0
10
256.999084
20
189.840548
11
258.190187
21
189.254410
0
LINE
8
0
10
258.190187
20
189.254410
11
259.431773
21
188.835739
0
LINE
8
0
10
259.431773
20
188.835739
11
260.707013
21
188.584537
0
LINE
8
0
10
260.707013
20
188.584537
11
261.999081
21
188.500803
0
LINE
8
0
10
261.999081
20
188.500803
11
263.291149
21
188.584537
0
LINE
8
0
10
263.291149
20
188.584537
11
264.566389
21
188.835739
0
LINE
8
0
10
264.566389
20
188.835739
11
265.807975
21
189.254410
0
LINE
8
0
10
265.807975
20
189.254410
11
266.999079
21
189.840548
0
LINE
8
0
10
266.999079
20
189.840548
11
268.102241
21
190.579005
0
LINE
8
0
10
268.102241
20
190.579005
11
269.085613
21
191.444914
0
LINE
8
0
10
269.085613
20
191.444914
11
269.940781
21
192.423704
0
LINE
8
0
10
269.940781
20
192.423704
11
270.659331
21
193.500800
0
LINE
8
0
10
270.659331
20
193.500800
11
271.232849
21
194.661631
0
LINE
8
0
10
271.232849
20
194.661631
11
271.652922
21
195.891623
0
LINE
8
0
10
271.652922
20
195.891623
11
271.911135
21
197.176203
0
LINE
8
0
10
271.911135
20
197.176203
11
271.999076
21
198.500798
0
LINE
8
0
10
271.999076
20
198.500798
11
271.999076
21
198.500798
0
LINE
8
0
10
496.999242
20
628.501143
11
96.999221
21
628.501143
0
LINE
8
0
10
96.999221
20
628.501143
11
96.999221
21
228.501917
0
LINE
8
0
10
496.999242
20
228.501917
11
496.999242
21
628.501143
0
LINE
8
0
10
96.999221
20
228.501917
11
496.999242
21
228.501917
0
LINE
8
0
10
-57.000521
20
832.499927
11
650.999778
21
832.499927
0
LINE
8
0
10
650.999778
20
832.499927
11
650.999778
21
8.501153
0
LINE
8
0
10
650.999778
20
8.501153
11
-57.000521
21
8.501153
0
LINE
8
0
10
-57.000521
20
8.501153
11
-57.000521
21
832.499927
0
LINE
8
0
10
96.999496
20
628.501288
11
146.999433
21
628.501288
0
LINE
8
0
10
146.999433
20
628.501288
11
146.999433
21
578.501350
0
LINE
8
0
10
146.999433
20
578.501350
11
96.999496
21
578.501350
0
LINE
8
0
10
96.999496
20
578.501350
11
96.999496
21
628.501288
0
LINE
8
0
10
96.999496
20
578.501335
11
146.999433
21
578.501335
0
LINE
8
0
10
146.999433
20
578.501335
11
146.999433
21
528.501397
0
LINE
8
0
10
146.999433
20
528.501397
11
96.999496
21
528.501397
0
LINE
8
0
10
96.999496
20
528.501397
11
96.999496
21
578.501335
0
LINE
8
0
10
96.999496
20
528.501416
11
146.999433
21
528.501416
0
LINE
8
0
10
146.999433
20
528.501416
11
146.999433
21
478.501478
0
LINE
8
0
10
146.999433
20
478.501478
11
96.999496
21
478.501478
0
LINE
8
0
10
96.999496
20
478.501478
11
96.999496
21
528.501416
0
LINE
8
0
10
96.999496
20
478.501499
11
146.999433
21
478.501499
0
LINE
8
0
10
146.999433
20
478.501499
11
146.999433
21
428.501562
0
LINE
8
0
10
146.999433
20
428.501562
11
96.999496
21
428.501562
0
LINE
8
0
10
96.999496
20
428.501562
11
96.999496
21
478.501499
0
LINE
8
0
10
96.999496
20
428.501503
11
146.999433
21
428.501503
0
LINE
8
0
10
146.999433
20
428.501503
11
146.999433
21
378.501566
0
LINE
8
0
10
146.999433
20
378.501566
11
96.999496
21
378.501566
0
LINE
8
0
10
96.999496
20
378.501566
11
96.999496
21
428.501503
0
LINE
8
0
10
96.999496
20
378.501587
11
146.999433
21
378.501587
0
LINE
8
0
10
146.999433
20
378.501587
11
146.999433
21
328.501650
0
LINE
8
0
10
146.999433
20
328.501650
11
96.999496
21
328.501650
0
LINE
8
0
10
96.999496
20
328.501650
11
96.999496
21
378.501587
0
LINE
8
0
10
96.999496
20
328.501671
11
146.999433
21
328.501671
0
LINE
8
0
10
146.999433
20
328.501671
11
146.999433
21
278.501733
0
LINE
8
0
10
146.999433
20
278.501733
11
96.999496
21
278.501733
0
LINE
8
0
10
96.999496
20
278.501733
11
96.999496
21
328.501671
0
LINE
8
0
10
96.999496
20
278.501701
11
146.999433
21
278.501701
0
LINE
8
0
10
146.999433
20
278.501701
11
146.999433
21
228.501764
0
LINE
8
0
10
146.999433
20
228.501764
11
96.999496
21
228.501764
0
LINE
8
0
10
96.999496
20
228.501764
11
96.999496
21
278.501701
0
LINE
8
0
10
146.999449
20
628.501288
11
196.999387
21
628.501288
0
LINE
8
0
10
196.999387
20
628.501288
11
196.999387
21
578.501350
0
LINE
8
0
10
196.999387
20
578.501350
11
146.999449
21
578.501350
0
LINE
8
0
10
146.999449
20
578.501350
11
146.999449
21
628.501288
0
LINE
8
0
10
146.999449
20
578.501335
11
196.999387
21
578.501335
0
LINE
8
0
10
196.999387
20
578.501335
11
196.999387
21
528.501397
0
LINE
8
0
10
196.999387
20
528.501397
11
146.999449
21
528.501397
0
LINE
8
0
10
146.999449
20
528.501397
11
146.999449
21
578.501335
0
LINE
8
0
10
146.999449
20
528.501416
11
196.999387
21
528.501416
0
LINE
8
0
10
196.999387
20
528.501416
11
196.999387
21
478.501478
0
LINE
8
0
10
196.999387
20
478.501478
11
146.999449
21
478.501478
0
LINE
8
0
10
146.999449
20
478.501478
11
146.999449
21
528.501416
0
LINE
8
0
10
146.999449
20
478.501499
11
196.999387
21
478.501499
0
LINE
8
0
10
196.999387
20
478.501499
11
196.999387
21
428.501562
0
LINE
8
0
10
196.999387
20
428.501562
11
146.999449
21
428.501562
0
LINE
8
0
10
146.999449
20
428.501562
11
146.999449
21
478.501499
0
LINE
8
0
10
146.999449
20
428.501503
11
196.999387
21
428.501503
0
LINE
8
0
10
196.999387
20
428.501503
11
196.999387
21
378.501566
0
LINE
8
0
10
196.999387
20
378.501566
11
146.999449
21
378.501566
0
LINE
8
0
10
146.999449
20
378.501566
11
146.999449
21
428.501503
0
LINE
8
0
10
146.999449
20
378.501587
11
196.999387
21
378.501587
0
LINE
8
0
10
196.999387
20
378.501587
11
196.999387
21
328.501650
0
LINE
8
0
10
196.999387
20
328.501650
11
146.999449
21
328.501650
0
LINE
8
0
10
146.999449
20
328.501650
11
146.999449
21
378.501587
0
LINE
8
0
10
146.999449
20
328.501671
11
196.999387
21
328.501671
0
LINE
8
0
10
196.999387
20
328.501671
11
196.999387
21
278.501733
0
LINE
8
0
10
196.999387
20
278.501733
11
146.999449
21
278.501733
0
LINE
8
0
10
146.999449
20
278.501733
11
146.999449
21
328.501671
0
LINE
8
0
10
146.999449
20
278.501701
11
196.999387
21
278.501701
0
LINE
8
0
10
196.999387
20
278.501701
11
196.999387
21
228.501764
0
LINE
8
0
10
196.999387
20
228.501764
11
146.999449
21
228.501764
0
LINE
8
0
10
146.999449
20
228.501764
11
146.999449
21
278.501701
0
LINE
8
0
10
196.999371
20
628.501288
11
246.999309
21
628.501288
0
LINE
8
0
10
246.999309
20
628.501288
11
246.999309
21
578.501350
0
LINE
8
0
10
246.999309
20
578.501350
11
196.999371
21
578.501350
0
LINE
8
0
10
196.999371
20
578.501350
11
196.999371
21
628.501288
0
LINE
8
0
10
196.999371
20
578.501335
11
246.999309
21
578.501335
0
LINE
8
0
10
246.999309
20
578.501335
11
246.999309
21
528.501397
0
LINE
8
0
10
246.999309
20
528.501397
11
196.999371
21
528.501397
0
LINE
8
0
10
196.999371
20
528.501397
11
196.999371
21
578.501335
0
LINE
8
0
10
196.999371
20
528.501416
11
246.999309
21
528.501416
0
LINE
8
0
10
246.999309
20
528.501416
11
246.999309
21
478.501478
0
LINE
8
0
10
246.999309
20
478.501478
11
196.999371
21
478.501478
0
LINE
8
0
10
196.999371
20
478.501478
11
196.999371
21
528.501416
0
LINE
8
0
10
196.999371
20
478.501499
11
246.999309
21
478.501499
0
LINE
8
0
10
246.999309
20
478.501499
11
246.999309
21
428.501562
0
LINE
8
0
10
246.999309
20
428.501562
11
196.999371
21
428.501562
0
LINE
8
0
10
196.999371
20
428.501562
11
196.999371
21
478.501499
0
LINE
8
0
10
196.999371
20
428.501503
11
246.999309
21
428.501503
0
LINE
8
0
10
246.999309
20
428.501503
11
246.999309
21
378.501566
0
LINE
8
0
10
246.999309
20
378.501566
11
196.999371
21
378.501566
0
LINE
8
0
10
196.999371
20
378.501566
11
196.999371
21
428.501503
0
LINE
8
0
10
196.999371
20
378.501587
11
246.999309
21
378.501587
0
LINE
8
0
10
246.999309
20
378.501587
11
246.999309
21
328.501650
0
LINE
8
0
10
246.999309
20
328.501650
11
196.999371
21
328.501650
0
LINE
8
0
10
196.999371
20
328.501650
11
196.999371
21
378.501587
0
LINE
8
0
10
196.999371
20
328.501671
11
246.999309
21
328.501671
0
LINE
8
0
10
246.999309
20
328.501671
11
246.999309
21
278.501733
0
LINE
8
0
10
246.999309
20
278.501733
11
196.999371
21
278.501733
0
LINE
8
0
10
196.999371
20
278.501733
11
196.999371
21
328.501671
0
LINE
8
0
10
196.999371
20
278.501701
11
246.999309
21
278.501701
0
LINE
8
0
10
246.999309
20
278.501701
11
246.999309
21
228.501764
0
LINE
8
0
10
246.999309
20
228.501764
11
196.999371
21
228.501764
0
LINE
8
0
10
196.999371
20
228.501764
11
196.999371
21
278.501701
0
LINE
8
0
10
246.999309
20
628.501288
11
296.999246
21
628.501288
0
LINE
8
0
10
296.999246
20
628.501288
11
296.999246
21
578.501350
0
LINE
8
0
10
296.999246
20
578.501350
11
246.999309
21
578.501350
0
LINE
8
0
10
246.999309
20
578.501350
11
246.999309
21
628.501288
0
LINE
8
0
10
246.999309
20
578.501335
11
296.999246
21
578.501335
0
LINE
8
0
10
296.999246
20
578.501335
11
296.999246
21
528.501397
0
LINE
8
0
10
296.999246
20
528.501397
11
246.999309
21
528.501397
0
LINE
8
0
10
246.999309
20
528.501397
11
246.999309
21
578.501335
0
LINE
8
0
10
246.999309
20
528.501416
11
296.999246
21
528.501416
0
LINE
8
0
10
296.999246
20
528.501416
11
296.999246
21
478.501478
0
LINE
8
0
10
296.999246
20
478.501478
11
246.999309
21
478.501478
0
LINE
8
0
10
246.999309
20
478.501478
11
246.999309
21
528.501416
0
LINE
8
0
10
246.999309
20
478.501499
11
296.999246
21
478.501499
0
LINE
8
0
10
296.999246
20
478.501499
11
296.999246
21
428.501562
0
LINE
8
0
10
296.999246
20
428.501562
11
246.999309
21
428.501562
0
LINE
8
0
10
246.999309
20
428.501562
11
246.999309
21
478.501499
0
LINE
8
0
10
246.999309
20
428.501503
11
296.999246
21
428.501503
0
LINE
8
0
10
296.999246
20
428.501503
11
296.999246
21
378.501566
0
LINE
8
0
10
296.999246
20
378.501566
11
246.999309
21
378.501566
0
LINE
8
0
10
246.999309
20
378.501566
11
246.999309
21
428.501503
0
LINE
8
0
10
246.999309
20
378.501587
11
296.999246
21
378.501587
0
LINE
8
0
10
296.999246
20
378.501587
11
296.999246
21
328.501650
0
LINE
8
0
10
296.999246
20
328.501650
11
246.999309
21
328.501650
0
LINE
8
0
10
246.999309
20
328.501650
11
246.999309
21
378.501587
0
LINE
8
0
10
246.999309
20
328.501671
11
296.999246
21
328.501671
0
LINE
8
0
10
296.999246
20
328.501671
11
296.999246
21
278.501733
0
LINE
8
0
10
296.999246
20
278.501733
11
246.999309
21
278.501733
0
LINE
8
0
10
246.999309
20
278.501733
11
246.999309
21
328.501671
0
LINE
8
0
10
246.999309
20
278.501701
11
296.999246
21
278.501701
0
LINE
8
0
10
296.999246
20
278.501701
11
296.999246
21
228.501764
0
LINE
8
0
10
296.999246
20
228.501764
11
246.999309
21
228.501764
0
LINE
8
0
10
246.999309
20
228.501764
11
246.999309
21
278.501701
0
LINE
8
0
10
296.999233
20
628.501288
11
346.999170
21
628.501288
0
LINE
8
0
10
346.999170
20
628.501288
11
346.999170
21
578.501350
0
LINE
8
0
10
346.999170
20
578.501350
11
296.999233
21
578.501350
0
LINE
8
0
10
296.999233
20
578.501350
11
296.999233
21
628.501288
0
LINE
8
0
10
296.999233
20
578.501335
11
346.999170
21
578.501335
0
LINE
8
0
10
346.999170
20
578.501335
11
346.999170
21
528.501397
0
LINE
8
0
10
346.999170
20
528.501397
11
296.999233
21
528.501397
0
LINE
8
0
10
296.999233
20
528.501397
11
296.999233
21
578.501335
0
LINE
8
0
10
296.999233
20
528.501416
11
346.999170
21
528.501416
0
LINE
8
0
10
346.999170
20
528.501416
11
346.999170
21
478.501478
0
LINE
8
0
10
346.999170
20
478.501478
11
296.999233
21
478.501478
0
LINE
8
0
10
296.999233
20
478.501478
11
296.999233
21
528.501416
0
LINE
8
0
10
296.999233
20
478.501499
11
346.999170
21
478.501499
0
LINE
8
0
10
346.999170
20
478.501499
11
346.999170
21
428.501562
0
LINE
8
0
10
346.999170
20
428.501562
11
296.999233
21
428.501562
0
LINE
8
0
10
296.999233
20
428.501562
11
296.999233
21
478.501499
0
LINE
8
0
10
296.999233
20
428.501503
11
346.999170
21
428.501503
0
LINE
8
0
10
346.999170
20
428.501503
11
346.999170
21
378.501566
0
LINE
8
0
10
346.999170
20
378.501566
11
296.999233
21
378.501566
0
LINE
8
0
10
296.999233
20
378.501566
11
296.999233
21
428.501503
0
LINE
8
0
10
296.999233
20
378.501587
11
346.999170
21
378.501587
0
LINE
8
0
10
346.999170
20
378.501587
11
346.999170
21
328.501650
0
LINE
8
0
10
346.999170
20
328.501650
11
296.999233
21
328.501650
0
LINE
8
0
10
296.999233
20
328.501650
11
296.999233
21
378.501587
0
LINE
8
0
10
296.999233
20
328.501671
11
346.999170
21
328.501671
0
LINE
8
0
10
346.999170
20
328.501671
11
346.999170
21
278.501733
0
LINE
8
0
10
346.999170
20
278.501733
11
296.999233
21
278.501733
0
LINE
8
0
10
296.999233
20
278.501733
11
296.999233
21
328.501671
0
LINE
8
0
10
296.999233
20
278.501701
11
346.999170
21
278.501701
0
LINE
8
0
10
346.999170
20
278.501701
11
346.999170
21
228.501764
0
LINE
8
0
10
346.999170
20
228.501764
11
296.999233
21
228.501764
0
LINE
8
0
10
296.999233
20
228.501764
11
296.999233
21
278.501701
0
LINE
8
0
10
346.999176
20
628.501288
11
396.999113
21
628.501288
0
LINE
8
0
10
396.999113
20
628.501288
11
396.999113
21
578.501350
0
LINE
8
0
10
396.999113
20
578.501350
11
346.999176
21
578.501350
0
LINE
8
0
10
346.999176
20
578.501350
11
346.999176
21
628.501288
0
LINE
8
0
10
346.999176
20
578.501335
11
396.999113
21
578.501335
0
LINE
8
0
10
396.999113
20
578.501335
11
396.999113
21
528.501397
0
LINE
8
0
10
396.999113
20
528.501397
11
346.999176
21
528.501397
0
LINE
8
0
10
346.999176
20
528.501397
11
346.999176
21
578.501335
0
LINE
8
0
10
346.999176
20
528.501416
11
396.999113
21
528.501416
0
LINE
8
0
10
396.999113
20
528.501416
11
396.999113
21
478.501478
0
LINE
8
0
10
396.999113
20
478.501478
11
346.999176
21
478.501478
0
LINE
8
0
10
346.999176
20
478.501478
11
346.999176
21
528.501416
0
LINE
8
0
10
346.999176
20
478.501499
11
396.999113
21
478.501499
0
LINE
8
0
10
396.999113
20
478.501499
11
396.999113
21
428.501562
0
LINE
8
0
10
396.999113
20
428.501562
11
346.999176
21
428.501562
0
LINE
8
0
10
346.999176
20
428.501562
11
346.999176
21
478.501499
0
LINE
8
0
10
346.999176
20
428.501503
11
396.999113
21
428.501503
0
LINE
8
0
10
396.999113
20
428.501503
11
396.999113
21
378.501566
0
LINE
8
0
10
396.999113
20
378.501566
11
346.999176
21
378.501566
0
LINE
8
0
10
346.999176
20
378.501566
11
346.999176
21
428.501503
0
LINE
8
0
10
346.999176
20
378.501587
11
396.999113
21
378.501587
0
LINE
8
0
10
396.999113
20
378.501587
11
396.999113
21
328.501650
0
LINE
8
0
10
396.999113
20
328.501650
11
346.999176
21
328.501650
0
LINE
8
0
10
346.999176
20
328.501650
11
346.999176
21
378.501587
0
LINE
8
0
10
346.999176
20
328.501671
11
396.999113
21
328.501671
0
LINE
8
0
10
396.999113
20
328.501671
11
396.999113
21
278.501733
0
LINE
8
0
10
396.999113
20
278.501733
11
346.999176
21
278.501733
0
LINE
8
0
10
346.999176
20
278.501733
11
346.999176
21
328.501671
0
LINE
8
0
10
346.999176
20
278.501701
11
396.999113
21
278.501701
0
LINE
8
0
10
396.999113
20
278.501701
11
396.999113
21
228.501764
0
LINE
8
0
10
396.999113
20
228.501764
11
346.999176
21
228.501764
0
LINE
8
0
10
346.999176
20
228.501764
11
346.999176
21
278.501701
0
LINE
8
0
10
396.999092
20
628.501288
11
446.999030
21
628.501288
0
LINE
8
0
10
446.999030
20
628.501288
11
446.999030
21
578.501350
0
LINE
8
0
10
446.999030
20
578.501350
11
396.999092
21
578.501350
0
LINE
8
0
10
396.999092
20
578.501350
11
396.999092
21
628.501288
0
LINE
8
0
10
396.999092
20
578.501335
11
446.999030
21
578.501335
0
LINE
8
0
10
446.999030
20
578.501335
11
446.999030
21
528.501397
0
LINE
8
0
10
446.999030
20
528.501397
11
396.999092
21
528.501397
0
LINE
8
0
10
396.999092
20
528.501397
11
396.999092
21
578.501335
0
LINE
8
0
10
396.999092
20
528.501416
11
446.999030
21
528.501416
0
LINE
8
0
10
446.999030
20
528.501416
11
446.999030
21
478.501478
0
LINE
8
0
10
446.999030
20
478.501478
11
396.999092
21
478.501478
0
LINE
8
0
10
396.999092
20
478.501478
11
396.999092
21
528.501416
0
LINE
8
0
10
396.999092
20
478.501499
11
446.999030
21
478.501499
0
LINE
8
0
10
446.999030
20
478.501499
11
446.999030
21
428.501562
0
LINE
8
0
10
446.999030
20
428.501562
11
396.999092
21
428.501562
0
LINE
8
0
10
396.999092
20
428.501562
11
396.999092
21
478.501499
0
LINE
8
0
10
396.999092
20
428.501503
11
446.999030
21
428.501503
0
LINE
8
0
10
446.999030
20
428.501503
11
446.999030
21
378.501566
0
LINE
8
0
10
446.999030
20
378.501566
11
396.999092
21
378.501566
0
LINE
8
0
10
396.999092
20
378.501566
11
396.999092
21
428.501503
0
LINE
8
0
10
396.999092
20
378.501587
11
446.999030
21
378.501587
0
LINE
8
0
10
446.999030
20
378.501587
11
446.999030
21
328.501650
0
LINE
8
0
10
446.999030
20
328.501650
11
396.999092
21
328.501650
0
LINE
8
0
10
396.999092
20
328.501650
11
396.999092
21
378.501587
0
LINE
8
0
10
396.999092
20
328.501671
11
446.999030
21
328.501671
0
LINE
8
0
10
446.999030
20
328.501671
11
446.999030
21
278.501733
0
LINE
8
0
10
446.999030
20
278.501733
11
396.999092
21
278.501733
0
LINE
8
0
10
396.999092
20
278.501733
11
396.999092
21
328.501671
0
LINE
8
0
10
396.999092
20
278.501701
11
446.999030
21
278.501701
0
LINE
8
0
10
446.999030
20
278.501701
11
446.999030
21
228.501764
0
LINE
8
0
10
446.999030
20
228.501764
11
396.999092
21
228.501764
0
LINE
8
0
10
396.999092
20
228.501764
11
396.999092
21
278.501701
0
LINE
8
0
10
446.999035
20
628.501288
11
496.998973
21
628.501288
0
LINE
8
0
10
496.998973
20
628.501288
11
496.998973
21
578.501350
0
LINE
8
0
10
496.998973
20
578.501350
11
446.999035
21
578.501350
0
LINE
8
0
10
446.999035
20
578.501350
11
446.999035
21
628.501288
0
LINE
8
0
10
446.999035
20
578.501335
11
496.998973
21
578.501335
0
LINE
8
0
10
496.998973
20
578.501335
11
496.998973
21
528.501397
0
LINE
8
0
10
496.998973
20
528.501397
11
446.999035
21
528.501397
0
LINE
8
0
10
446.999035
20
528.501397
11
446.999035
21
578.501335
0
LINE
8
0
10
446.999035
20
528.501416
11
496.998973
21
528.501416
0
LINE
8
0
10
496.998973
20
528.501416
11
496.998973
21
478.501478
0
LINE
8
0
10
496.998973
20
478.501478
11
446.999035
21
478.501478
0
LINE
8
0
10
446.999035
20
478.501478
11
446.999035
21
528.501416
0
LINE
8
0
10
446.999035
20
478.501499
11
496.998973
21
478.501499
0
LINE
8
0
10
496.998973
20
478.501499
11
496.998973
21
428.501562
0
LINE
8
0
10
496.998973
20
428.501562
11
446.999035
21
428.501562
0
LINE
8
0
10
446.999035
20
428.501562
11
446.999035
21
478.501499
0
LINE
8
0
10
446.999035
20
428.501503
11
496.998973
21
428.501503
0
LINE
8
0
10
496.998973
20
428.501503
11
496.998973
21
378.501566
0
LINE
8
0
10
496.998973
20
378.501566
11
446.999035
21
378.501566
0
LINE
8
0
10
446.999035
20
378.501566
11
446.999035
21
428.501503
0
LINE
8
0
10
446.999035
20
378.501587
11
496.998973
21
378.501587
0
LINE
8
0
10
496.998973
20
378.501587
11
496.998973
21
328.501650
0
LINE
8
0
10
496.998973
20
328.501650
11
446.999035
21
328.501650
0
LINE
8
0
10
446.999035
20
328.501650
11
446.999035
21
378.501587
0
LINE
8
0
10
446.999035
20
328.501671
11
496.998973
21
328.501671
0
LINE
8
0
10
496.998973
20
328.501671
11
496.998973
21
278.501733
0
LINE
8
0
10
496.998973
20
278.501733
11
446.999035
21
278.501733
0
LINE
8
0
10
446.999035
20
278.501733
11
446.999035
21
328.501671
0
LINE
8
0
10
446.999035
20
278.501701
11
496.998973
21
278.501701
0
LINE
8
0
10
496.998973
20
278.501701
11
496.998973
21
228.501764
0
LINE
8
0
10
496.998973
20
228.501764
11
446.999035
21
228.501764
0
LINE
8
0
10
446.999035
20
228.501764
11
446.999035
21
278.501701
0
LINE
8
0
10
-56.217630
20
420.621031
11
-56.217630
21
831.690074
0
LINE
8
0
10
-56.217630
20
831.690074
11
296.843394
21
831.690074
0
LINE
8
0
10
296.843394
20
831.690074
11
649.904430
21
831.690074
0
LINE
8
0
10
649.904430
20
831.690074
11
649.904430
21
420.621031
0
LINE
8
0
10
649.904430
20
420.621031
11
649.904430
21
9.551997
0
LINE
8
0
10
649.904430
20
9.551997
11
296.843394
21
9.551997
0
LINE
8
0
10
296.843394
20
9.551997
11
-56.217630
21
9.551997
0
LINE
8
0
10
-56.217630
20
9.551997
11
-56.217630
21
420.621031
0
LINE
8
0
10
-40.136381
20
17.158361
11
-39.464287
21
17.553865
0
LINE
8
0
10
-39.464287
20
17.553865
11
-38.838224
21
18.178815
0
LINE
8
0
10
-38.838224
20
18.178815
11
-37.810086
21
19.915584
0
LINE
8
0
10
-37.810086
20
19.915584
11
-37.223748
21
21.965731
0
LINE
8
0
10
-37.223748
20
21.965731
11
-37.149935
21
22.982402
0
LINE
8
0
10
-37.149935
20
22.982402
11
-37.250990
21
23.926315
0
LINE
8
0
10
-37.250990
20
23.926315
11
-37.824683
21
25.422377
0
LINE
8
0
10
-37.824683
20
25.422377
11
-38.768198
21
26.617546
0
LINE
8
0
10
-38.768198
20
26.617546
11
-39.995604
21
27.491449
0
LINE
8
0
10
-39.995604
20
27.491449
11
-41.420974
21
28.023710
0
LINE
8
0
10
-41.420974
20
28.023710
11
-42.958377
21
28.193957
0
LINE
8
0
10
-42.958377
20
28.193957
11
-44.521884
21
27.981813
0
LINE
8
0
10
-44.521884
20
27.981813
11
-46.025566
21
27.366906
0
LINE
8
0
10
-46.025566
20
27.366906
11
-47.383495
21
26.328861
0
LINE
8
0
10
-47.383495
20
26.328861
11
-48.302768
21
25.290185
0
LINE
8
0
10
-48.302768
20
25.290185
11
-48.801740
21
24.337692
0
LINE
8
0
10
-48.801740
20
24.337692
11
-48.946970
21
23.261796
0
LINE
8
0
10
-48.946970
20
23.261796
11
-48.805020
21
21.852911
0
LINE
8
0
10
-48.805020
20
21.852911
11
-48.409835
21
20.395819
0
LINE
8
0
10
-48.409835
20
20.395819
11
-47.746191
21
19.148504
0
LINE
8
0
10
-47.746191
20
19.148504
11
-46.849976
21
18.130400
0
LINE
8
0
10
-46.849976
20
18.130400
11
-45.757077
21
17.360946
0
LINE
8
0
10
-45.757077
20
17.360946
11
-44.503381
21
16.859578
0
LINE
8
0
10
-44.503381
20
16.859578
11
-43.124774
21
16.645734
0
LINE
8
0
10
-43.124774
20
16.645734
11
-41.657145
21
16.738849
0
LINE
8
0
10
-41.657145
20
16.738849
11
-40.136381
21
17.158361
0
LINE
8
0
10
-40.136381
20
17.158361
11
-40.136381
21
17.158361
0
LINE
8
0
10
641.085482
20
18.270615
11
641.705368
21
18.953581
0
LINE
8
0
10
641.705368
20
18.953581
11
642.183752
21
19.692210
0
LINE
8
0
10
642.183752
20
19.692210
11
642.738092
21
21.281416
0
LINE
8
0
10
642.738092
20
21.281416
11
642.792653
21
22.928152
0
LINE
8
0
10
642.792653
20
22.928152
11
642.391589
21
24.522335
0
LINE
8
0
10
642.391589
20
24.522335
11
641.579054
21
25.953880
0
LINE
8
0
10
641.579054
20
25.953880
11
640.399199
21
27.112706
0
LINE
8
0
10
640.399199
20
27.112706
11
638.896178
21
27.888730
0
LINE
8
0
10
638.896178
20
27.888730
11
637.114144
21
28.171867
0
LINE
8
0
10
637.114144
20
28.171867
11
635.880769
21
28.065580
0
LINE
8
0
10
635.880769
20
28.065580
11
634.759035
21
27.757198
0
LINE
8
0
10
634.759035
20
27.757198
11
633.765218
21
27.262435
0
LINE
8
0
10
633.765218
20
27.262435
11
632.915596
21
26.597009
0
LINE
8
0
10
632.915596
20
26.597009
11
632.226445
21
25.776636
0
LINE
8
0
10
632.226445
20
25.776636
11
631.714042
21
24.817032
0
LINE
8
0
10
631.714042
20
24.817032
11
631.394663
21
23.733913
0
LINE
8
0
10
631.394663
20
23.733913
11
631.284587
21
22.542996
0
LINE
8
0
10
631.284587
20
22.542996
11
631.550445
21
20.718638
0
LINE
8
0
10
631.550445
20
20.718638
11
632.283608
21
19.178708
0
LINE
8
0
10
632.283608
20
19.178708
11
633.387460
21
17.965322
0
LINE
8
0
10
633.387460
20
17.965322
11
634.765385
21
17.120596
0
LINE
8
0
10
634.765385
20
17.120596
11
636.320765
21
16.686646
0
LINE
8
0
10
636.320765
20
16.686646
11
637.956986
21
16.705588
0
LINE
8
0
10
637.956986
20
16.705588
11
639.577430
21
17.219540
0
LINE
8
0
10
639.577430
20
17.219540
11
641.085482
21
18.270615
0
LINE
8
0
10
641.085482
20
18.270615
11
641.085482
21
18.270615
0
LINE
8
0
10
482.325787
20
202.912005
11
482.325787
21
227.977196
0
LINE
8
0
10
482.325787
20
227.977196
11
490.203402
21
227.977196
0
LINE
8
0
10
490.203402
20
227.977196
11
498.081043
21
227.977196
0
LINE
8
0
10
498.081043
20
227.977196
11
498.081043
21
428.498672
0
LINE
8
0
10
498.081043
20
428.498672
11
498.081043
21
629.020149
0
LINE
8
0
10
498.081043
20
629.020149
11
490.203402
21
629.020149
0
LINE
8
0
10
490.203402
20
629.020149
11
482.325787
21
629.020149
0
LINE
8
0
10
482.325787
20
629.020149
11
482.325787
21
654.085334
0
LINE
8
0
10
482.325787
20
654.085334
11
482.325787
21
679.150520
0
LINE
8
0
10
482.325787
20
679.150520
11
296.843394
21
679.150520
0
LINE
8
0
10
296.843394
20
679.150520
11
111.361037
21
679.150520
0
LINE
8
0
10
111.361037
20
679.150520
11
111.361037
21
654.085334
0
LINE
8
0
10
111.361037
20
654.085334
11
111.361037
21
629.020149
0
LINE
8
0
10
111.361037
20
629.020149
11
103.841480
21
629.020149
0
LINE
8
0
10
103.841480
20
629.020149
11
96.321925
21
629.020149
0
LINE
8
0
10
96.321925
20
629.020149
11
96.321925
21
428.498672
0
LINE
8
0
10
96.321925
20
428.498672
11
96.321925
21
227.977196
0
LINE
8
0
10
96.321925
20
227.977196
11
103.841480
21
227.977196
0
LINE
8
0
10
103.841480
20
227.977196
11
111.361037
21
227.977196
0
LINE
8
0
10
111.361037
20
227.977196
11
111.361037
21
202.912005
0
LINE
8
0
10
111.361037
20
202.912005
11
111.361037
21
177.846814
0
LINE
8
0
10
111.361037
20
177.846814
11
296.843394
21
177.846814
0
LINE
8
0
10
296.843394
20
177.846814
11
482.325787
21
177.846814
0
LINE
8
0
10
482.325787
20
177.846814
11
482.325787
21
202.912005
0
LINE
8
0
10
-38.492964
20
814.899762
11
-37.778423
21
815.838091
0
LINE
8
0
10
-37.778423
20
815.838091
11
-37.285256
21
816.777525
0
LINE
8
0
10
-37.285256
20
816.777525
11
-37.013461
21
817.718025
0
LINE
8
0
10
-37.013461
20
817.718025
11
-36.963037
21
818.659555
0
LINE
8
0
10
-36.963037
20
818.659555
11
-37.133979
21
819.602079
0
LINE
8
0
10
-37.133979
20
819.602079
11
-37.526286
21
820.545558
0
LINE
8
0
10
-37.526286
20
820.545558
11
-38.139956
21
821.489956
0
LINE
8
0
10
-38.139956
20
821.489956
11
-38.974986
21
822.435236
0
LINE
8
0
10
-38.974986
20
822.435236
11
-40.183282
21
823.411664
0
LINE
8
0
10
-40.183282
20
823.411664
11
-41.479860
21
824.051131
0
LINE
8
0
10
-41.479860
20
824.051131
11
-42.813788
21
824.360451
0
LINE
8
0
10
-42.813788
20
824.360451
11
-44.134132
21
824.346436
0
LINE
8
0
10
-44.134132
20
824.346436
11
-45.389961
21
824.015897
0
LINE
8
0
10
-45.389961
20
824.015897
11
-46.530342
21
823.375646
0
LINE
8
0
10
-46.530342
20
823.375646
11
-47.504342
21
822.432496
0
LINE
8
0
10
-47.504342
20
822.432496
11
-48.261029
21
821.193258
0
LINE
8
0
10
-48.261029
20
821.193258
11
-48.911381
21
819.266447
0
LINE
8
0
10
-48.911381
20
819.266447
11
-48.997839
21
818.408523
0
LINE
8
0
10
-48.997839
20
818.408523
11
-48.919686
21
817.593918
0
LINE
8
0
10
-48.919686
20
817.593918
11
-48.672824
21
816.802380
0
LINE
8
0
10
-48.672824
20
816.802380
11
-48.253157
21
816.013657
0
LINE
8
0
10
-48.253157
20
816.013657
11
-46.879012
21
814.363652
0
LINE
8
0
10
-46.879012
20
814.363652
11
-45.681968
21
813.272551
0
LINE
8
0
10
-45.681968
20
813.272551
11
-44.679194
21
812.674674
0
LINE
8
0
10
-44.679194
20
812.674674
11
-43.657348
21
812.487274
0
LINE
8
0
10
-43.657348
20
812.487274
11
-42.403085
21
812.627601
0
LINE
8
0
10
-42.403085
20
812.627601
11
-41.383364
21
812.943350
0
LINE
8
0
10
-41.383364
20
812.943350
11
-40.306236
21
813.476997
0
LINE
8
0
10
-40.306236
20
813.476997
11
-39.300002
21
814.153986
0
LINE
8
0
10
-39.300002
20
814.153986
11
-38.492964
21
814.899762
0
LINE
8
0
10
-38.492964
20
814.899762
11
-38.492964
21
814.899762
0
LINE
8
0
10
639.827152
20
813.401810
11
640.716757
21
813.969748
0
LINE
8
0
10
640.716757
20
813.969748
11
641.439778
21
814.651682
0
LINE
8
0
10
641.439778
20
814.651682
11
642.001470
21
815.426827
0
LINE
8
0
10
642.001470
20
815.426827
11
642.407089
21
816.274397
0
LINE
8
0
10
642.407089
20
816.274397
11
642.661889
21
817.173607
0
LINE
8
0
10
642.661889
20
817.173607
11
642.771127
21
818.103672
0
LINE
8
0
10
642.771127
20
818.103672
11
642.573937
21
819.973225
0
LINE
8
0
10
642.573937
20
819.973225
11
641.857562
21
821.716776
0
LINE
8
0
10
641.857562
20
821.716776
11
641.317818
21
822.489337
0
LINE
8
0
10
641.317818
20
822.489337
11
640.664045
21
823.168042
0
LINE
8
0
10
640.664045
20
823.168042
11
639.901497
21
823.732105
0
LINE
8
0
10
639.901497
20
823.732105
11
639.035430
21
824.160741
0
LINE
8
0
10
639.035430
20
824.160741
11
638.071100
21
824.433166
0
LINE
8
0
10
638.071100
20
824.433166
11
637.013761
21
824.528593
0
LINE
8
0
10
637.013761
20
824.528593
11
635.927705
21
824.433639
0
LINE
8
0
10
635.927705
20
824.433639
11
634.944693
21
824.162280
0
LINE
8
0
10
634.944693
20
824.162280
11
634.069200
21
823.734765
0
LINE
8
0
10
634.069200
20
823.734765
11
633.305698
21
823.171346
0
LINE
8
0
10
633.305698
20
823.171346
11
632.658661
21
822.492272
0
LINE
8
0
10
632.658661
20
822.492272
11
632.132562
21
821.717796
0
LINE
8
0
10
632.132562
20
821.717796
11
631.461070
21
819.963637
0
LINE
8
0
10
631.461070
20
819.963637
11
631.327009
21
818.070876
0
LINE
8
0
10
631.327009
20
818.070876
11
631.472697
21
817.123146
0
LINE
8
0
10
631.472697
20
817.123146
11
631.766163
21
816.201517
0
LINE
8
0
10
631.766163
20
816.201517
11
632.211879
21
815.326241
0
LINE
8
0
10
632.211879
20
815.326241
11
632.814318
21
814.517568
0
LINE
8
0
10
632.814318
20
814.517568
11
633.577955
21
813.795749
0
LINE
8
0
10
633.577955
20
813.795749
11
634.507261
21
813.181034
0
LINE
8
0
10
634.507261
20
813.181034
11
635.817318
21
812.596023
0
LINE
8
0
10
635.817318
20
812.596023
11
636.995360
21
812.431785
0
LINE
8
0
10
636.995360
20
812.431785
11
638.259325
21
812.697366
0
LINE
8
0
10
638.259325
20
812.697366
11
639.827152
21
813.401810
0
LINE
8
0
10
639.827152
20
813.401810
11
639.827152
21
813.401810
0
LINE
8
0
10
112.793334
20
203.628152
11
112.793334
21
227.977196
0
LINE
8
0
10
112.793334
20
227.977196
11
297.201480
21
227.977196
0
LINE
8
0
10
297.201480
20
227.977196
11
481.609640
21
227.977196
0
LINE
8
0
10
481.609640
20
227.977196
11
481.609640
21
203.628152
0
LINE
8
0
10
481.609640
20
203.628152
11
481.609640
21
179.279108
0
LINE
8
0
10
481.609640
20
179.279108
11
297.201480
21
179.279108
0
LINE
8
0
10
297.201480
20
179.279108
11
112.793334
21
179.279108
0
LINE
8
0
10
112.793334
20
179.279108
11
112.793334
21
203.628152
0
LINE
8
0
10
137.931648
20
189.498494
11
139.774259
21
190.997669
0
LINE
8
0
10
139.774259
20
190.997669
11
141.150487
21
192.677106
0
LINE
8
0
10
141.150487
20
192.677106
11
142.088336
21
194.488566
0
LINE
8
0
10
142.088336
20
194.488566
11
142.615813
21
196.383810
0
LINE
8
0
10
142.615813
20
196.383810
11
142.760923
21
198.314600
0
LINE
8
0
10
142.760923
20
198.314600
11
142.551672
21
200.232695
0
LINE
8
0
10
142.551672
20
200.232695
11
142.016066
21
202.089858
0
LINE
8
0
10
142.016066
20
202.089858
11
141.182110
21
203.837851
0
LINE
8
0
10
141.182110
20
203.837851
11
140.077810
21
205.428433
0
LINE
8
0
10
140.077810
20
205.428433
11
138.731173
21
206.813366
0
LINE
8
0
10
138.731173
20
206.813366
11
137.170203
21
207.944411
0
LINE
8
0
10
137.170203
20
207.944411
11
135.422906
21
208.773330
0
LINE
8
0
10
135.422906
20
208.773330
11
133.517289
21
209.251884
0
LINE
8
0
10
133.517289
20
209.251884
11
131.481357
21
209.331833
0
LINE
8
0
10
131.481357
20
209.331833
11
129.343115
21
208.964940
0
LINE
8
0
10
129.343115
20
208.964940
11
127.130570
21
208.102965
0
LINE
8
0
10
127.130570
20
208.102965
11
125.825255
21
207.326691
0
LINE
8
0
10
125.825255
20
207.326691
11
124.686626
21
206.406077
0
LINE
8
0
10
124.686626
20
206.406077
11
123.715265
21
205.360656
0
LINE
8
0
10
123.715265
20
205.360656
11
122.911750
21
204.209964
0
LINE
8
0
10
122.911750
20
204.209964
11
122.276662
21
202.973537
0
LINE
8
0
10
122.276662
20
202.973537
11
121.810580
21
201.670909
0
LINE
8
0
10
121.810580
20
201.670909
11
121.514084
21
200.321615
0
LINE
8
0
10
121.514084
20
200.321615
11
121.387754
21
198.945192
0
LINE
8
0
10
121.387754
20
198.945192
11
121.432169
21
197.561173
0
LINE
8
0
10
121.432169
20
197.561173
11
121.647909
21
196.189094
0
LINE
8
0
10
121.647909
20
196.189094
11
122.035554
21
194.848490
0
LINE
8
0
10
122.035554
20
194.848490
11
122.595683
21
193.558896
0
LINE
8
0
10
122.595683
20
193.558896
11
123.328877
21
192.339848
0
LINE
8
0
10
123.328877
20
192.339848
11
124.235714
21
191.210880
0
LINE
8
0
10
124.235714
20
191.210880
11
125.316775
21
190.191528
0
LINE
8
0
10
125.316775
20
190.191528
11
126.572639
21
189.301326
0
LINE
8
0
10
126.572639
20
189.301326
11
127.864504
21
188.655760
0
LINE
8
0
10
127.864504
20
188.655760
11
129.277141
21
188.203144
0
LINE
8
0
10
129.277141
20
188.203144
11
130.768450
21
187.942746
0
LINE
8
0
10
130.768450
20
187.942746
11
132.296333
21
187.873838
0
LINE
8
0
10
132.296333
20
187.873838
11
133.818693
21
187.995689
0
LINE
8
0
10
133.818693
20
187.995689
11
135.293431
21
188.307569
0
LINE
8
0
10
135.293431
20
188.307569
11
136.678448
21
188.808747
0
LINE
8
0
10
136.678448
20
188.808747
11
137.931648
21
189.498494
0
LINE
8
0
10
137.931648
20
189.498494
11
137.931648
21
189.498494
0
LINE
8
0
10
269.745041
20
191.315332
11
271.217193
21
193.006658
0
LINE
8
0
10
271.217193
20
193.006658
11
272.046066
21
194.399609
0
LINE
8
0
10
272.046066
20
194.399609
11
272.411092
21
195.934155
0
LINE
8
0
10
272.411092
20
195.934155
11
272.491703
21
198.050266
0
LINE
8
0
10
272.491703
20
198.050266
11
272.414814
21
199.590286
0
LINE
8
0
10
272.414814
20
199.590286
11
272.188730
21
201.046059
0
LINE
8
0
10
272.188730
20
201.046059
11
271.817054
21
202.410103
0
LINE
8
0
10
271.817054
20
202.410103
11
271.303388
21
203.674937
0
LINE
8
0
10
271.303388
20
203.674937
11
270.651335
21
204.833078
0
LINE
8
0
10
270.651335
20
204.833078
11
269.864496
21
205.877045
0
LINE
8
0
10
269.864496
20
205.877045
11
268.946474
21
206.799357
0
LINE
8
0
10
268.946474
20
206.799357
11
267.900871
21
207.592531
0
LINE
8
0
10
267.900871
20
207.592531
11
265.874028
21
208.602049
0
LINE
8
0
10
265.874028
20
208.602049
11
263.701411
21
209.124065
0
LINE
8
0
10
263.701411
20
209.124065
11
261.470178
21
209.182514
0
LINE
8
0
10
261.470178
20
209.182514
11
259.267486
21
208.801332
0
LINE
8
0
10
259.267486
20
208.801332
11
257.180491
21
208.004453
0
LINE
8
0
10
257.180491
20
208.004453
11
255.296352
21
206.815813
0
LINE
8
0
10
255.296352
20
206.815813
11
253.702225
21
205.259348
0
LINE
8
0
10
253.702225
20
205.259348
11
252.485268
21
203.358992
0
LINE
8
0
10
252.485268
20
203.358992
11
251.430888
21
200.743592
0
LINE
8
0
10
251.430888
20
200.743592
11
251.174174
21
199.594709
0
LINE
8
0
10
251.174174
20
199.594709
11
251.098641
21
198.489583
0
LINE
8
0
10
251.098641
20
198.489583
11
251.204935
21
197.381620
0
LINE
8
0
10
251.204935
20
197.381620
11
251.493704
21
196.224229
0
LINE
8
0
10
251.493704
20
196.224229
11
252.621258
21
193.574792
0
LINE
8
0
10
252.621258
20
193.574792
11
253.471084
21
192.108243
0
LINE
8
0
10
253.471084
20
192.108243
11
254.428693
21
190.877255
0
LINE
8
0
10
254.428693
20
190.877255
11
255.506278
21
189.875447
0
LINE
8
0
10
255.506278
20
189.875447
11
256.716036
21
189.096437
0
LINE
8
0
10
256.716036
20
189.096437
11
258.070159
21
188.533843
0
LINE
8
0
10
258.070159
20
188.533843
11
259.580844
21
188.181286
0
LINE
8
0
10
259.580844
20
188.181286
11
261.260285
21
188.032383
0
LINE
8
0
10
261.260285
20
188.032383
11
263.120676
21
188.080752
0
LINE
8
0
10
263.120676
20
188.080752
11
265.267355
21
188.324910
0
LINE
8
0
10
265.267355
20
188.324910
11
266.808828
21
188.809579
0
LINE
8
0
10
266.808828
20
188.809579
11
268.162316
21
189.738480
0
LINE
8
0
10
268.162316
20
189.738480
11
269.745041
21
191.315332
0
LINE
8
0
10
269.745041
20
191.315332
11
269.745041
21
191.315332
0
LINE
8
0
10
337.491359
20
189.301326
11
339.158674
21
190.552296
0
LINE
8
0
10
339.158674
20
190.552296
11
340.517689
21
192.056208
0
LINE
8
0
10
340.517689
20
192.056208
11
341.554565
21
193.762809
0
LINE
8
0
10
341.554565
20
193.762809
11
342.255464
21
195.621844
0
LINE
8
0
10
342.255464
20
195.621844
11
342.606546
21
197.583060
0
LINE
8
0
10
342.606546
20
197.583060
11
342.593973
21
199.596201
0
LINE
8
0
10
342.593973
20
199.596201
11
342.203907
21
201.611015
0
LINE
8
0
10
342.203907
20
201.611015
11
341.422507
21
203.577246
0
LINE
8
0
10
341.422507
20
203.577246
11
340.740143
21
204.753042
0
LINE
8
0
10
340.740143
20
204.753042
11
339.962224
21
205.789943
0
LINE
8
0
10
339.962224
20
205.789943
11
339.087036
21
206.689114
0
LINE
8
0
10
339.087036
20
206.689114
11
338.112865
21
207.451717
0
LINE
8
0
10
338.112865
20
207.451717
11
337.037997
21
208.078915
0
LINE
8
0
10
337.037997
20
208.078915
11
335.860718
21
208.571871
0
LINE
8
0
10
335.860718
20
208.571871
11
334.579314
21
208.931748
0
LINE
8
0
10
334.579314
20
208.931748
11
333.192071
21
209.159709
0
LINE
8
0
10
333.192071
20
209.159709
11
331.166061
21
209.215609
0
LINE
8
0
10
331.166061
20
209.215609
11
329.291732
21
208.934163
0
LINE
8
0
10
329.291732
20
208.934163
11
327.581861
21
208.350953
0
LINE
8
0
10
327.581861
20
208.350953
11
326.049222
21
207.501562
0
LINE
8
0
10
326.049222
20
207.501562
11
324.706593
21
206.421571
0
LINE
8
0
10
324.706593
20
206.421571
11
323.566749
21
205.146561
0
LINE
8
0
10
323.566749
20
205.146561
11
322.642468
21
203.712116
0
LINE
8
0
10
322.642468
20
203.712116
11
321.946526
21
202.153816
0
LINE
8
0
10
321.946526
20
202.153816
11
321.491698
21
200.507244
0
LINE
8
0
10
321.491698
20
200.507244
11
321.290762
21
198.807982
0
LINE
8
0
10
321.290762
20
198.807982
11
321.356493
21
197.091611
0
LINE
8
0
10
321.356493
20
197.091611
11
321.701668
21
195.393713
0
LINE
8
0
10
321.701668
20
195.393713
11
322.339064
21
193.749871
0
LINE
8
0
10
322.339064
20
193.749871
11
323.281456
21
192.195665
0
LINE
8
0
10
323.281456
20
192.195665
11
324.541621
21
190.766679
0
LINE
8
0
10
324.541621
20
190.766679
11
326.132335
21
189.498494
0
LINE
8
0
10
326.132335
20
189.498494
11
327.385536
21
188.808747
0
LINE
8
0
10
327.385536
20
188.808747
11
328.770556
21
188.307569
0
LINE
8
0
10
328.770556
20
188.307569
11
330.245294
21
187.995689
0
LINE
8
0
10
330.245294
20
187.995689
11
331.767655
21
187.873838
0
LINE
8
0
10
331.767655
20
187.873838
11
333.295540
21
187.942746
0
LINE
8
0
10
333.295540
20
187.942746
11
334.786850
21
188.203144
0
LINE
8
0
10
334.786850
20
188.203144
11
336.199490
21
188.655760
0
LINE
8
0
10
336.199490
20
188.655760
11
337.491359
21
189.301326
0
LINE
8
0
10
337.491359
20
189.301326
11
337.491359
21
189.301326
0
LINE
8
0
10
467.297843
20
189.179142
11
469.075492
21
190.392536
0
LINE
8
0
10
469.075492
20
190.392536
11
470.514491
21
191.951802
0
LINE
8
0
10
470.514491
20
191.951802
11
471.596957
21
193.783770
0
LINE
8
0
10
471.596957
20
193.783770
11
472.305010
21
195.815267
0
LINE
8
0
10
472.305010
20
195.815267
11
472.620767
21
197.973125
0
LINE
8
0
10
472.620767
20
197.973125
11
472.526347
21
200.184172
0
LINE
8
0
10
472.526347
20
200.184172
11
472.003868
21
202.375237
0
LINE
8
0
10
472.003868
20
202.375237
11
471.035448
21
204.473151
0
LINE
8
0
10
471.035448
20
204.473151
11
469.819209
21
206.020519
0
LINE
8
0
10
469.819209
20
206.020519
11
468.226259
21
207.277291
0
LINE
8
0
10
468.226259
20
207.277291
11
466.352443
21
208.223417
0
LINE
8
0
10
466.352443
20
208.223417
11
464.293605
21
208.838843
0
LINE
8
0
10
464.293605
20
208.838843
11
462.145588
21
209.103519
0
LINE
8
0
10
462.145588
20
209.103519
11
460.004236
21
208.997393
0
LINE
8
0
10
460.004236
20
208.997393
11
457.965392
21
208.500415
0
LINE
8
0
10
457.965392
20
208.500415
11
456.124900
21
207.592531
0
LINE
8
0
10
456.124900
20
207.592531
11
455.087865
21
206.806273
0
LINE
8
0
10
455.087865
20
206.806273
11
454.180027
21
205.901779
0
LINE
8
0
10
454.180027
20
205.901779
11
453.402056
21
204.895475
0
LINE
8
0
10
453.402056
20
204.895475
11
452.754618
21
203.803782
0
LINE
8
0
10
452.754618
20
203.803782
11
451.854016
21
201.429926
0
LINE
8
0
10
451.854016
20
201.429926
11
451.483565
21
198.911599
0
LINE
8
0
10
451.483565
20
198.911599
11
451.648609
21
196.380190
0
LINE
8
0
10
451.648609
20
196.380190
11
452.354493
21
193.967084
0
LINE
8
0
10
452.354493
20
193.967084
11
452.911919
21
192.845954
0
LINE
8
0
10
452.911919
20
192.845954
11
453.606560
21
191.803671
0
LINE
8
0
10
453.606560
20
191.803671
11
454.439082
21
190.856657
0
LINE
8
0
10
454.439082
20
190.856657
11
455.410155
21
190.021336
0
LINE
8
0
10
455.410155
20
190.021336
11
456.734675
21
189.180867
0
LINE
8
0
10
456.734675
20
189.180867
11
458.155618
21
188.546891
0
LINE
8
0
10
458.155618
20
188.546891
11
459.647836
21
188.121190
0
LINE
8
0
10
459.647836
20
188.121190
11
461.186180
21
187.905545
0
LINE
8
0
10
461.186180
20
187.905545
11
462.745502
21
187.901737
0
LINE
8
0
10
462.745502
20
187.901737
11
464.300652
21
188.111546
0
LINE
8
0
10
464.300652
20
188.111546
11
465.826482
21
188.536754
0
LINE
8
0
10
465.826482
20
188.536754
11
467.297843
21
189.179142
0
LINE
8
0
10
467.297843
20
189.179142
11
467.297843
21
189.179142
0
LINE
8
0
10
112.793334
20
653.369185
11
112.793334
21
677.718224
0
LINE
8
0
10
112.793334
20
677.718224
11
297.201480
21
677.718224
0
LINE
8
0
10
297.201480
20
677.718224
11
481.609640
21
677.718224
0
LINE
8
0
10
481.609640
20
677.718224
11
481.609640
21
653.369185
0
LINE
8
0
10
481.609640
20
653.369185
11
481.609640
21
629.020149
0
LINE
8
0
10
481.609640
20
629.020149
11
297.201480
21
629.020149
0
LINE
8
0
10
297.201480
20
629.020149
11
112.793334
21
629.020149
0
LINE
8
0
10
112.793334
20
629.020149
11
112.793334
21
653.369185
0
LINE
8
0
10
137.161261
20
649.081935
11
138.909898
21
650.221955
0
LINE
8
0
10
138.909898
20
650.221955
11
140.356194
21
651.669296
0
LINE
8
0
10
140.356194
20
651.669296
11
141.481086
21
653.362778
0
LINE
8
0
10
141.481086
20
653.362778
11
142.265507
21
655.241219
0
LINE
8
0
10
142.265507
20
655.241219
11
142.690392
21
657.243441
0
LINE
8
0
10
142.690392
20
657.243441
11
142.736677
21
659.308262
0
LINE
8
0
10
142.736677
20
659.308262
11
142.385295
21
661.374504
0
LINE
8
0
10
142.385295
20
661.374504
11
141.617183
21
663.380984
0
LINE
8
0
10
141.617183
20
663.380984
11
140.561664
21
665.096769
0
LINE
8
0
10
140.561664
20
665.096769
11
139.305057
21
666.498072
0
LINE
8
0
10
139.305057
20
666.498072
11
137.884490
21
667.594204
0
LINE
8
0
10
137.884490
20
667.594204
11
136.337090
21
668.394473
0
LINE
8
0
10
136.337090
20
668.394473
11
134.699986
21
668.908189
0
LINE
8
0
10
134.699986
20
668.908189
11
133.010304
21
669.144661
0
LINE
8
0
10
133.010304
20
669.144661
11
131.305172
21
669.113200
0
LINE
8
0
10
131.305172
20
669.113200
11
129.621718
21
668.823115
0
LINE
8
0
10
129.621718
20
668.823115
11
127.997069
21
668.283714
0
LINE
8
0
10
127.997069
20
668.283714
11
126.468353
21
667.504309
0
LINE
8
0
10
126.468353
20
667.504309
11
125.072697
21
666.494207
0
LINE
8
0
10
125.072697
20
666.494207
11
123.847229
21
665.262719
0
LINE
8
0
10
123.847229
20
665.262719
11
122.829076
21
663.819154
0
LINE
8
0
10
122.829076
20
663.819154
11
122.055367
21
662.172821
0
LINE
8
0
10
122.055367
20
662.172821
11
121.563227
21
660.333031
0
LINE
8
0
10
121.563227
20
660.333031
11
121.389786
21
658.309092
0
LINE
8
0
10
121.389786
20
658.309092
11
121.484012
21
656.820465
0
LINE
8
0
10
121.484012
20
656.820465
11
121.760163
21
655.416535
0
LINE
8
0
10
121.760163
20
655.416535
11
122.204726
21
654.105209
0
LINE
8
0
10
122.204726
20
654.105209
11
122.804188
21
652.894391
0
LINE
8
0
10
122.804188
20
652.894391
11
123.545037
21
651.791988
0
LINE
8
0
10
123.545037
20
651.791988
11
124.413760
21
650.805906
0
LINE
8
0
10
124.413760
20
650.805906
11
125.396844
21
649.944049
0
LINE
8
0
10
125.396844
20
649.944049
11
126.480776
21
649.214323
0
LINE
8
0
10
126.480776
20
649.214323
11
127.652044
21
648.624635
0
LINE
8
0
10
127.652044
20
648.624635
11
128.897136
21
648.182890
0
LINE
8
0
10
128.897136
20
648.182890
11
130.202538
21
647.896993
0
LINE
8
0
10
130.202538
20
647.896993
11
131.554738
21
647.774850
0
LINE
8
0
10
131.554738
20
647.774850
11
132.940223
21
647.824368
0
LINE
8
0
10
132.940223
20
647.824368
11
134.345480
21
648.053450
0
LINE
8
0
10
134.345480
20
648.053450
11
135.756997
21
648.470004
0
LINE
8
0
10
135.756997
20
648.470004
11
137.161261
21
649.081935
0
LINE
8
0
10
137.161261
20
649.081935
11
137.161261
21
649.081935
0
LINE
8
0
10
266.750914
20
648.894372
11
268.074694
21
649.674248
0
LINE
8
0
10
268.074694
20
649.674248
11
269.230847
21
650.597223
0
LINE
8
0
10
269.230847
20
650.597223
11
270.216636
21
651.658543
0
LINE
8
0
10
270.216636
20
651.658543
11
271.029327
21
652.853454
0
LINE
8
0
10
271.029327
20
652.853454
11
271.666182
21
654.177203
0
LINE
8
0
10
271.666182
20
654.177203
11
272.124465
21
655.625035
0
LINE
8
0
10
272.124465
20
655.625035
11
272.401442
21
657.192197
0
LINE
8
0
10
272.401442
20
657.192197
11
272.494376
21
658.873935
0
LINE
8
0
10
272.494376
20
658.873935
11
272.414014
21
661.036221
0
LINE
8
0
10
272.414014
20
661.036221
11
272.049764
21
662.590155
0
LINE
8
0
10
272.049764
20
662.590155
11
271.216874
21
663.991866
0
LINE
8
0
10
271.216874
20
663.991866
11
269.730595
21
665.697483
0
LINE
8
0
10
269.730595
20
665.697483
11
268.113744
21
667.315490
0
LINE
8
0
10
268.113744
20
667.315490
11
266.740315
21
668.241374
0
LINE
8
0
10
266.740315
20
668.241374
11
265.116415
21
668.703918
0
LINE
8
0
10
265.116415
20
668.703918
11
262.748151
21
668.931907
0
LINE
8
0
10
262.748151
20
668.931907
11
260.865886
21
668.963120
0
LINE
8
0
10
260.865886
20
668.963120
11
259.180105
21
668.796113
0
LINE
8
0
10
259.180105
20
668.796113
11
257.676965
21
668.423207
0
LINE
8
0
10
257.676965
20
668.423207
11
256.342621
21
667.836723
0
LINE
8
0
10
256.342621
20
667.836723
11
255.163227
21
667.028981
0
LINE
8
0
10
255.163227
20
667.028981
11
254.124941
21
665.992305
0
LINE
8
0
10
254.124941
20
665.992305
11
253.213916
21
664.719013
0
LINE
8
0
10
253.213916
20
664.719013
11
252.416309
21
663.201428
0
LINE
8
0
10
252.416309
20
663.201428
11
251.427451
21
660.597606
0
LINE
8
0
10
251.427451
20
660.597606
11
251.183405
21
659.460688
0
LINE
8
0
10
251.183405
20
659.460688
11
251.106668
21
658.374636
0
LINE
8
0
10
251.106668
20
658.374636
11
251.197529
21
657.295102
0
LINE
8
0
10
251.197529
20
657.295102
11
251.456276
21
656.177739
0
LINE
8
0
10
251.456276
20
656.177739
11
252.478587
21
653.652138
0
LINE
8
0
10
252.478587
20
653.652138
11
253.603209
21
651.838928
0
LINE
8
0
10
253.603209
20
651.838928
11
255.038568
21
650.333078
0
LINE
8
0
10
255.038568
20
650.333078
11
256.723497
21
649.154978
0
LINE
8
0
10
256.723497
20
649.154978
11
258.596832
21
648.325017
0
LINE
8
0
10
258.596832
20
648.325017
11
260.597406
21
647.863586
0
LINE
8
0
10
260.597406
20
647.863586
11
262.664055
21
647.791075
0
LINE
8
0
10
262.664055
20
647.791075
11
264.735613
21
648.127874
0
LINE
8
0
10
264.735613
20
648.127874
11
266.750914
21
648.894372
0
LINE
8
0
10
266.750914
20
648.894372
11
266.750914
21
648.894372
0
LINE
8
0
10
338.254311
20
649.560317
11
339.716908
21
650.893718
0
LINE
8
0
10
339.716908
20
650.893718
11
340.898536
21
652.503646
0
LINE
8
0
10
340.898536
20
652.503646
11
341.784205
21
654.318112
0
LINE
8
0
10
341.784205
20
654.318112
11
342.358922
21
656.265129
0
LINE
8
0
10
342.358922
20
656.265129
11
342.607698
21
658.272706
0
LINE
8
0
10
342.607698
20
658.272706
11
342.515541
21
660.268856
0
LINE
8
0
10
342.515541
20
660.268856
11
342.067460
21
662.181588
0
LINE
8
0
10
342.067460
20
662.181588
11
341.248464
21
663.938916
0
LINE
8
0
10
341.248464
20
663.938916
11
340.359018
21
665.195057
0
LINE
8
0
10
340.359018
20
665.195057
11
339.341973
21
666.276423
0
LINE
8
0
10
339.341973
20
666.276423
11
338.216438
21
667.183579
0
LINE
8
0
10
338.216438
20
667.183579
11
337.001520
21
667.917092
0
LINE
8
0
10
337.001520
20
667.917092
11
335.716329
21
668.477527
0
LINE
8
0
10
335.716329
20
668.477527
11
334.379971
21
668.865449
0
LINE
8
0
10
334.379971
20
668.865449
11
333.011556
21
669.081426
0
LINE
8
0
10
333.011556
20
669.081426
11
331.630191
21
669.126021
0
LINE
8
0
10
331.630191
20
669.126021
11
330.254984
21
668.999802
0
LINE
8
0
10
330.254984
20
668.999802
11
328.905044
21
668.703335
0
LINE
8
0
10
328.905044
20
668.703335
11
327.599479
21
668.237184
0
LINE
8
0
10
327.599479
20
668.237184
11
326.357396
21
667.601915
0
LINE
8
0
10
326.357396
20
667.601915
11
325.197904
21
666.798095
0
LINE
8
0
10
325.197904
20
666.798095
11
324.140111
21
665.826290
0
LINE
8
0
10
324.140111
20
665.826290
11
323.203124
21
664.687064
0
LINE
8
0
10
323.203124
20
664.687064
11
322.406054
21
663.380984
0
LINE
8
0
10
322.406054
20
663.380984
11
321.643961
21
661.405963
0
LINE
8
0
10
321.643961
20
661.405963
11
321.313066
21
659.328586
0
LINE
8
0
10
321.313066
20
659.328586
11
321.390065
21
657.221632
0
LINE
8
0
10
321.390065
20
657.221632
11
321.851656
21
655.157879
0
LINE
8
0
10
321.851656
20
655.157879
11
322.674536
21
653.210105
0
LINE
8
0
10
322.674536
20
653.210105
11
323.835401
21
651.451087
0
LINE
8
0
10
323.835401
20
651.451087
11
325.310948
21
649.953603
0
LINE
8
0
10
325.310948
20
649.953603
11
327.077875
21
648.790431
0
LINE
8
0
10
327.077875
20
648.790431
11
328.312272
21
648.305371
0
LINE
8
0
10
328.312272
20
648.305371
11
329.722068
21
647.995277
0
LINE
8
0
10
329.722068
20
647.995277
11
331.242802
21
647.855708
0
LINE
8
0
10
331.242802
20
647.855708
11
332.810009
21
647.882223
0
LINE
8
0
10
332.810009
20
647.882223
11
334.359227
21
648.070382
0
LINE
8
0
10
334.359227
20
648.070382
11
335.825992
21
648.415744
0
LINE
8
0
10
335.825992
20
648.415744
11
337.145841
21
648.913869
0
LINE
8
0
10
337.145841
20
648.913869
11
338.254311
21
649.560317
0
LINE
8
0
10
338.254311
20
649.560317
11
338.254311
21
649.560317
0
LINE
8
0
10
466.089836
20
648.616846
11
468.050263
21
649.676005
0
LINE
8
0
10
468.050263
20
649.676005
11
469.693828
21
651.052522
0
LINE
8
0
10
469.693828
20
651.052522
11
470.999179
21
652.691976
0
LINE
8
0
10
470.999179
20
652.691976
11
471.944962
21
654.539948
0
LINE
8
0
10
471.944962
20
654.539948
11
472.509824
21
656.542020
0
LINE
8
0
10
472.509824
20
656.542020
11
472.672410
21
658.643770
0
LINE
8
0
10
472.672410
20
658.643770
11
472.411369
21
660.790781
0
LINE
8
0
10
472.411369
20
660.790781
11
471.705346
21
662.928632
0
LINE
8
0
10
471.705346
20
662.928632
11
471.020782
21
664.295678
0
LINE
8
0
10
471.020782
20
664.295678
11
470.256675
21
665.463758
0
LINE
8
0
10
470.256675
20
665.463758
11
469.396029
21
666.444710
0
LINE
8
0
10
469.396029
20
666.444710
11
468.421848
21
667.250370
0
LINE
8
0
10
468.421848
20
667.250370
11
467.317136
21
667.892576
0
LINE
8
0
10
467.317136
20
667.892576
11
466.064897
21
668.383165
0
LINE
8
0
10
466.064897
20
668.383165
11
464.648136
21
668.733973
0
LINE
8
0
10
464.648136
20
668.733973
11
463.049857
21
668.956838
0
LINE
8
0
10
463.049857
20
668.956838
11
460.592120
21
668.979161
0
LINE
8
0
10
460.592120
20
668.979161
11
458.365979
21
668.571242
0
LINE
8
0
10
458.365979
20
668.571242
11
456.401054
21
667.759762
0
LINE
8
0
10
456.401054
20
667.759762
11
454.726965
21
666.571396
0
LINE
8
0
10
454.726965
20
666.571396
11
453.373334
21
665.032823
0
LINE
8
0
10
453.373334
20
665.032823
11
452.369782
21
663.170720
0
LINE
8
0
10
452.369782
20
663.170720
11
451.745928
21
661.011765
0
LINE
8
0
10
451.745928
20
661.011765
11
451.531395
21
658.582637
0
LINE
8
0
10
451.531395
20
658.582637
11
451.616027
21
657.133677
0
LINE
8
0
10
451.616027
20
657.133677
11
451.862520
21
655.759388
0
LINE
8
0
10
451.862520
20
655.759388
11
452.259768
21
654.467372
0
LINE
8
0
10
452.259768
20
654.467372
11
452.796666
21
653.265230
0
LINE
8
0
10
452.796666
20
653.265230
11
453.462109
21
652.160564
0
LINE
8
0
10
453.462109
20
652.160564
11
454.244992
21
651.160977
0
LINE
8
0
10
454.244992
20
651.160977
11
455.134209
21
650.274070
0
LINE
8
0
10
455.134209
20
650.274070
11
456.118655
21
649.507445
0
LINE
8
0
10
456.118655
20
649.507445
11
457.187225
21
648.868705
0
LINE
8
0
10
457.187225
20
648.868705
11
458.328814
21
648.365451
0
LINE
8
0
10
458.328814
20
648.365451
11
459.532315
21
648.005285
0
LINE
8
0
10
459.532315
20
648.005285
11
460.786625
21
647.795809
0
LINE
8
0
10
460.786625
20
647.795809
11
462.080637
21
647.744625
0
LINE
8
0
10
462.080637
20
647.744625
11
463.403246
21
647.859335
0
LINE
8
0
10
463.403246
20
647.859335
11
464.743348
21
648.147542
0
LINE
8
0
10
464.743348
20
648.147542
11
466.089836
21
648.616846
0
LINE
8
0
10
466.089836
20
648.616846
11
466.089836
21
648.616846
0
LINE
8
0
10
104.363952
20
266.526357
11
99.365813
21
266.526357
0
LINE
8
0
10
99.365813
20
266.526357
11
99.365813
21
267.468934
0
LINE
8
0
10
99.365813
20
267.468934
11
101.288175
21
267.468934
0
LINE
8
0
10
101.288175
20
267.468934
11
101.288175
21
273.657689
0
LINE
8
0
10
101.288175
20
273.657689
11
99.365813
21
273.657689
0
LINE
8
0
10
99.365813
20
273.657689
11
99.365813
21
274.501048
0
LINE
8
0
10
99.365813
20
274.501048
11
100.202972
21
274.563066
0
LINE
8
0
10
100.202972
20
274.563066
11
100.878897
21
274.755312
0
LINE
8
0
10
100.878897
20
274.755312
11
101.325380
21
275.145969
0
LINE
8
0
10
101.325380
20
275.145969
11
101.517618
21
275.790890
0
LINE
8
0
10
101.517618
20
275.790890
11
102.478798
21
275.790890
0
LINE
8
0
10
102.478798
20
275.790890
11
102.478798
21
267.468934
0
LINE
8
0
10
102.478798
20
267.468934
11
104.363952
21
267.468934
0
LINE
8
0
10
104.363952
20
267.468934
11
104.363952
21
266.526357
0
LINE
8
0
10
105.245770
20
316.432003
11
98.994997
21
316.432003
0
LINE
8
0
10
98.994997
20
316.432003
11
98.994997
21
317.728036
0
LINE
8
0
10
98.994997
20
317.728036
11
100.297240
21
318.844259
0
LINE
8
0
10
100.297240
20
318.844259
11
101.518870
21
319.954264
0
LINE
8
0
10
101.518870
20
319.954264
11
103.149775
21
321.783617
0
LINE
8
0
10
103.149775
20
321.783617
11
103.479987
21
322.492091
0
LINE
8
0
10
103.479987
20
322.492091
11
103.590057
21
323.253270
0
LINE
8
0
10
103.590057
20
323.253270
11
103.470685
21
323.893548
0
LINE
8
0
10
103.470685
20
323.893548
11
103.112570
21
324.375684
0
LINE
8
0
10
103.112570
20
324.375684
11
102.546713
21
324.682647
0
LINE
8
0
10
102.546713
20
324.682647
11
101.791721
21
324.784967
0
LINE
8
0
10
101.791721
20
324.784967
11
100.570091
21
324.586530
0
LINE
8
0
10
100.570091
20
324.586530
11
99.286451
21
323.978809
0
LINE
8
0
10
99.286451
20
323.978809
11
99.224438
21
323.978809
0
LINE
8
0
10
99.224438
20
323.978809
11
99.224438
21
325.281061
0
LINE
8
0
10
99.224438
20
325.281061
11
100.396459
21
325.677935
0
LINE
8
0
10
100.396459
20
325.677935
11
101.822728
21
325.857772
0
LINE
8
0
10
101.822728
20
325.857772
11
103.089314
21
325.685687
0
LINE
8
0
10
103.089314
20
325.685687
11
104.048945
21
325.169433
0
LINE
8
0
10
104.048945
20
325.169433
11
104.653557
21
324.364836
0
LINE
8
0
10
104.653557
20
324.364836
11
104.855095
21
323.315288
0
LINE
8
0
10
104.855095
20
323.315288
11
104.718671
21
322.329320
0
LINE
8
0
10
104.718671
20
322.329320
11
104.327998
21
321.467335
0
LINE
8
0
10
104.327998
20
321.467335
11
103.757491
21
320.710813
0
LINE
8
0
10
103.757491
20
320.710813
11
102.969941
21
319.886054
0
LINE
8
0
10
102.969941
20
319.886054
11
101.599486
21
318.621004
0
LINE
8
0
10
101.599486
20
318.621004
11
100.278637
21
317.492398
0
LINE
8
0
10
100.278637
20
317.492398
11
105.245770
21
317.492398
0
LINE
8
0
10
105.245770
20
317.492398
11
105.245770
21
316.432003
0
LINE
8
0
10
104.541387
20
370.553143
11
105.031281
21
369.883431
0
LINE
8
0
10
105.031281
20
369.883431
11
105.223516
21
368.841635
0
LINE
8
0
10
105.223516
20
368.841635
11
104.994072
21
367.681994
0
LINE
8
0
10
104.994072
20
367.681994
11
104.349151
21
366.764235
0
LINE
8
0
10
104.349151
20
366.764235
11
103.251545
21
366.119314
0
LINE
8
0
10
103.251545
20
366.119314
11
101.874888
21
365.914686
0
LINE
8
0
10
101.874888
20
365.914686
11
100.361803
21
366.100714
0
LINE
8
0
10
100.361803
20
366.100714
11
99.140173
21
366.497589
0
LINE
8
0
10
99.140173
20
366.497589
11
99.140173
21
367.793622
0
LINE
8
0
10
99.140173
20
367.793622
11
99.233190
21
367.793622
0
LINE
8
0
10
99.233190
20
367.793622
11
100.473423
21
367.216910
0
LINE
8
0
10
100.473423
20
367.216910
11
101.850083
21
366.987464
0
LINE
8
0
10
101.850083
20
366.987464
11
102.681038
21
367.117692
0
LINE
8
0
10
102.681038
20
367.117692
11
103.394173
21
367.502184
0
LINE
8
0
10
103.394173
20
367.502184
11
103.815853
21
368.103687
0
LINE
8
0
10
103.815853
20
368.103687
11
103.958479
21
368.934636
0
LINE
8
0
10
103.958479
20
368.934636
11
103.797247
21
369.753203
0
LINE
8
0
10
103.797247
20
369.753203
11
103.363167
21
370.267896
0
LINE
8
0
10
103.363167
20
370.267896
11
102.687239
21
370.528352
0
LINE
8
0
10
102.687239
20
370.528352
11
101.831480
21
370.602753
0
LINE
8
0
10
101.831480
20
370.602753
11
101.273374
21
370.602753
0
LINE
8
0
10
101.273374
20
370.602753
11
101.273374
21
371.632139
0
LINE
8
0
10
101.273374
20
371.632139
11
101.707457
21
371.632139
0
LINE
8
0
10
101.707457
20
371.632139
11
102.553915
21
371.729810
0
LINE
8
0
10
102.553915
20
371.729810
11
103.208137
21
372.022823
0
LINE
8
0
10
103.208137
20
372.022823
11
103.631366
21
372.509616
0
LINE
8
0
10
103.631366
20
372.509616
11
103.772442
21
373.176246
0
LINE
8
0
10
103.772442
20
373.176246
11
103.629816
21
373.759148
0
LINE
8
0
10
103.629816
20
373.759148
11
103.232942
21
374.174623
0
LINE
8
0
10
103.232942
20
374.174623
11
102.662435
21
374.397878
0
LINE
8
0
10
102.662435
20
374.397878
11
101.974106
21
374.459870
0
LINE
8
0
10
101.974106
20
374.459870
11
100.721470
21
374.249050
0
LINE
8
0
10
100.721470
20
374.249050
11
99.468836
21
373.653739
0
LINE
8
0
10
99.468836
20
373.653739
11
99.406823
21
373.653739
0
LINE
8
0
10
99.406823
20
373.653739
11
99.406823
21
374.949772
0
LINE
8
0
10
99.406823
20
374.949772
11
100.578844
21
375.346646
0
LINE
8
0
10
100.578844
20
375.346646
11
102.005113
21
375.532675
0
LINE
8
0
10
102.005113
20
375.532675
11
103.195736
21
375.408665
0
LINE
8
0
10
103.195736
20
375.408665
11
104.125909
21
375.011790
0
LINE
8
0
10
104.125909
20
375.011790
11
104.801837
21
374.292442
0
LINE
8
0
10
104.801837
20
374.292442
11
105.031281
21
373.306473
0
LINE
8
0
10
105.031281
20
373.306473
11
104.894855
21
372.585577
0
LINE
8
0
10
104.894855
20
372.585577
11
104.485578
21
371.960804
0
LINE
8
0
10
104.485578
20
371.960804
11
103.896466
21
371.495727
0
LINE
8
0
10
103.896466
20
371.495727
11
103.208137
21
371.241482
0
LINE
8
0
10
103.208137
20
371.241482
11
103.208137
21
371.154646
0
LINE
8
0
10
103.208137
20
371.154646
11
103.890266
21
370.943827
0
LINE
8
0
10
103.890266
20
370.943827
11
104.541387
21
370.553143
0
LINE
8
0
10
104.541387
20
370.553143
11
104.541387
21
370.553143
0
LINE
8
0
10
105.073090
20
421.142868
11
103.702632
21
421.142868
0
LINE
8
0
10
103.702632
20
421.142868
11
103.702632
21
418.544557
0
LINE
8
0
10
103.702632
20
418.544557
11
102.512009
21
418.544557
0
LINE
8
0
10
102.512009
20
418.544557
11
102.512009
21
421.142868
0
LINE
8
0
10
102.512009
20
421.142868
11
98.090578
21
421.142868
0
LINE
8
0
10
98.090578
20
421.142868
11
98.090578
21
422.569129
0
LINE
8
0
10
98.090578
20
422.569129
11
102.561618
21
427.778107
0
LINE
8
0
10
102.561618
20
427.778107
11
103.702632
21
427.778107
0
LINE
8
0
10
103.702632
20
427.778107
11
103.702632
21
422.135054
0
LINE
8
0
10
103.702632
20
422.135054
11
105.073090
21
422.135054
0
LINE
8
0
10
105.073090
20
422.135054
11
105.073090
21
421.142868
0
LINE
8
0
10
102.512009
20
422.135054
11
102.512009
21
426.302237
0
LINE
8
0
10
102.512009
20
426.302237
11
98.933936
21
422.135054
0
LINE
8
0
10
98.933936
20
422.135054
11
102.512009
21
422.135054
0
LINE
8
0
10
104.455209
20
468.794372
11
104.219564
21
467.560357
0
LINE
8
0
10
104.219564
20
467.560357
11
103.574643
21
466.568171
0
LINE
8
0
10
103.574643
20
466.568171
11
102.508043
21
465.898432
0
LINE
8
0
10
102.508043
20
465.898432
11
101.081776
21
465.668986
0
LINE
8
0
10
101.081776
20
465.668986
11
99.624503
21
465.830222
0
LINE
8
0
10
99.624503
20
465.830222
11
98.440079
21
466.208497
0
LINE
8
0
10
98.440079
20
466.208497
11
98.440079
21
467.516939
0
LINE
8
0
10
98.440079
20
467.516939
11
98.526897
21
467.516939
0
LINE
8
0
10
98.526897
20
467.516939
11
99.717520
21
466.965045
0
LINE
8
0
10
99.717520
20
466.965045
11
101.056971
21
466.741790
0
LINE
8
0
10
101.056971
20
466.741790
11
101.906532
21
466.865827
0
LINE
8
0
10
101.906532
20
466.865827
11
102.644469
21
467.299902
0
LINE
8
0
10
102.644469
20
467.299902
11
103.053745
21
467.938605
0
LINE
8
0
10
103.053745
20
467.938605
11
103.196374
21
468.800590
0
LINE
8
0
10
103.196374
20
468.800590
11
103.028940
21
469.606721
0
LINE
8
0
10
103.028940
20
469.606721
11
102.576257
21
470.133824
0
LINE
8
0
10
102.576257
20
470.133824
11
101.788708
21
470.462489
0
LINE
8
0
10
101.788708
20
470.462489
11
100.759316
21
470.561707
0
LINE
8
0
10
100.759316
20
470.561707
11
99.705116
21
470.487307
0
LINE
8
0
10
99.705116
20
470.487307
11
98.836953
21
470.338479
0
LINE
8
0
10
98.836953
20
470.338479
11
98.836953
21
475.094755
0
LINE
8
0
10
98.836953
20
475.094755
11
104.393196
21
475.094755
0
LINE
8
0
10
104.393196
20
475.094755
11
104.393196
21
474.009568
0
LINE
8
0
10
104.393196
20
474.009568
11
100.033779
21
474.009568
0
LINE
8
0
10
100.033779
20
474.009568
11
100.033779
21
471.553894
0
LINE
8
0
10
100.033779
20
471.553894
11
100.579481
21
471.591094
0
LINE
8
0
10
100.579481
20
471.591094
11
101.063173
21
471.603529
0
LINE
8
0
10
101.063173
20
471.603529
11
102.377820
21
471.473302
0
LINE
8
0
10
102.377820
20
471.473302
11
103.413414
21
471.026818
0
LINE
8
0
10
103.413414
20
471.026818
11
104.182358
21
470.146259
0
LINE
8
0
10
104.182358
20
470.146259
11
104.386997
21
469.538538
0
LINE
8
0
10
104.386997
20
469.538538
11
104.455209
21
468.794399
0
LINE
8
0
10
104.455209
20
468.794399
11
104.455209
21
468.794372
0
LINE
8
0
10
105.121543
20
521.048324
11
104.889000
21
519.769337
0
LINE
8
0
10
104.889000
20
519.769337
11
104.191370
21
518.747696
0
LINE
8
0
10
104.191370
20
518.747696
11
103.161976
21
518.082613
0
LINE
8
0
10
103.161976
20
518.082613
11
101.921743
21
517.860919
0
LINE
8
0
10
101.921743
20
517.860919
11
100.681510
21
518.071765
0
LINE
8
0
10
100.681510
20
518.071765
11
99.695525
21
518.698086
0
LINE
8
0
10
99.695525
20
518.698086
11
99.222686
21
519.296494
0
LINE
8
0
10
99.222686
20
519.296494
11
98.870770
21
520.062329
0
LINE
8
0
10
98.870770
20
520.062329
11
98.656831
21
520.998715
0
LINE
8
0
10
98.656831
20
520.998715
11
98.585518
21
522.108720
0
LINE
8
0
10
98.585518
20
522.108720
11
98.845965
21
524.285338
0
LINE
8
0
10
98.845965
20
524.285338
11
99.190129
21
525.181402
0
LINE
8
0
10
99.190129
20
525.181402
11
99.689323
21
525.972055
0
LINE
8
0
10
99.689323
20
525.972055
11
100.314091
21
526.595267
0
LINE
8
0
10
100.314091
20
526.595267
11
101.096987
21
527.063460
0
LINE
8
0
10
101.096987
20
527.063460
11
102.030263
21
527.361116
0
LINE
8
0
10
102.030263
20
527.361116
11
103.106164
21
527.460334
0
LINE
8
0
10
103.106164
20
527.460334
11
103.720081
21
527.429325
0
LINE
8
0
10
103.720081
20
527.429325
11
104.222374
21
527.317698
0
LINE
8
0
10
104.222374
20
527.317698
11
104.222374
21
526.133265
0
LINE
8
0
10
104.222374
20
526.133265
11
104.160363
21
526.133265
0
LINE
8
0
10
104.160363
20
526.133265
11
103.633264
21
526.306911
0
LINE
8
0
10
103.633264
20
526.306911
11
102.920131
21
526.393721
0
LINE
8
0
10
102.920131
20
526.393721
11
101.721756
21
526.184436
0
LINE
8
0
10
101.721756
20
526.184436
11
100.793132
21
525.556580
0
LINE
8
0
10
100.793132
20
525.556580
11
100.165264
21
524.578331
0
LINE
8
0
10
100.165264
20
524.578331
11
99.869158
21
523.305535
0
LINE
8
0
10
99.869158
20
523.305535
11
100.892351
21
523.783028
0
LINE
8
0
10
100.892351
20
523.783028
11
102.064369
21
523.950456
0
LINE
8
0
10
102.064369
20
523.950456
11
103.099965
21
523.838855
0
LINE
8
0
10
103.099965
20
523.838855
11
104.023936
21
523.404753
0
LINE
8
0
10
104.023936
20
523.404753
11
104.501426
21
522.976889
0
LINE
8
0
10
104.501426
20
522.976889
11
104.842490
21
522.449794
0
LINE
8
0
10
104.842490
20
522.449794
11
105.051780
21
521.811071
0
LINE
8
0
10
105.051780
20
521.811071
11
105.121543
21
521.048324
0
LINE
8
0
10
105.121543
20
521.048324
11
105.121543
21
521.048324
0
LINE
8
0
10
103.862708
20
520.998715
11
103.689075
21
521.953701
0
LINE
8
0
10
103.689075
20
521.953701
11
103.130969
21
522.611004
0
LINE
8
0
10
103.130969
20
522.611004
11
102.498451
21
522.871460
0
LINE
8
0
10
102.498451
20
522.871460
11
101.772915
21
522.933478
0
LINE
8
0
10
101.772915
20
522.933478
11
100.793132
21
522.809441
0
LINE
8
0
10
100.793132
20
522.809441
11
99.862956
21
522.424976
0
LINE
8
0
10
99.862956
20
522.424976
11
99.844356
21
522.158329
0
LINE
8
0
10
99.844356
20
522.158329
11
99.838165
21
521.842073
0
LINE
8
0
10
99.838165
20
521.842073
11
100.036602
21
520.291776
0
LINE
8
0
10
100.036602
20
520.291776
11
100.594708
21
519.398808
0
LINE
8
0
10
100.594708
20
519.398808
11
101.208623
21
518.995742
0
LINE
8
0
10
101.208623
20
518.995742
11
101.934159
21
518.871706
0
LINE
8
0
10
101.934159
20
518.871706
11
102.737209
21
519.008131
0
LINE
8
0
10
102.737209
20
519.008131
11
103.348025
21
519.417408
0
LINE
8
0
10
103.348025
20
519.417408
11
103.734047
21
520.088695
0
LINE
8
0
10
103.734047
20
520.088695
11
103.862721
21
520.998715
0
LINE
8
0
10
103.862721
20
520.998715
11
103.862708
21
520.998715
0
LINE
8
0
10
105.639187
20
573.885787
11
101.459603
21
566.035133
0
LINE
8
0
10
101.459603
20
566.035133
11
100.132553
21
566.035133
0
LINE
8
0
10
100.132553
20
566.035133
11
104.578788
21
574.183443
0
LINE
8
0
10
104.578788
20
574.183443
11
99.320201
21
574.183443
0
LINE
8
0
10
99.320201
20
574.183443
11
99.320201
21
575.268657
0
LINE
8
0
10
99.320201
20
575.268657
11
105.639187
21
575.268657
0
LINE
8
0
10
105.639187
20
575.268657
11
105.639187
21
573.885787
0
LINE
8
0
10
104.981357
20
617.986810
11
104.747262
21
616.890754
0
LINE
8
0
10
104.747262
20
616.890754
11
104.044979
21
615.996236
0
LINE
8
0
10
104.044979
20
615.996236
11
102.993882
21
615.400924
0
LINE
8
0
10
102.993882
20
615.400924
11
101.700940
21
615.202487
0
LINE
8
0
10
101.700940
20
615.202487
11
100.352186
21
615.396273
0
LINE
8
0
10
100.352186
20
615.396273
11
99.307289
21
615.977633
0
LINE
8
0
10
99.307289
20
615.977633
11
98.642215
21
616.861299
0
LINE
8
0
10
98.642215
20
616.861299
11
98.420524
21
617.962005
0
LINE
8
0
10
98.420524
20
617.962005
11
98.532145
21
618.693743
0
LINE
8
0
10
98.532145
20
618.693743
11
98.867007
21
619.351066
0
LINE
8
0
10
98.867007
20
619.351066
11
99.404958
21
619.912272
0
LINE
8
0
10
99.404958
20
619.912272
11
100.125843
21
620.343252
0
LINE
8
0
10
100.125843
20
620.343252
11
100.125843
21
620.380461
0
LINE
8
0
10
100.125843
20
620.380461
11
99.022037
21
621.248623
0
LINE
8
0
10
99.022037
20
621.248623
11
98.756937
21
621.778823
0
LINE
8
0
10
98.756937
20
621.778823
11
98.668570
21
622.426843
0
LINE
8
0
10
98.668570
20
622.426843
11
98.882511
21
623.381823
0
LINE
8
0
10
98.882511
20
623.381823
11
99.524332
21
624.163169
0
LINE
8
0
10
99.524332
20
624.163169
11
100.496364
21
624.684067
0
LINE
8
0
10
100.496364
20
624.684067
11
101.700940
21
624.857700
0
LINE
8
0
10
101.700940
20
624.857700
11
102.944273
21
624.691819
0
LINE
8
0
10
102.944273
20
624.691819
11
103.908554
21
624.194176
0
LINE
8
0
10
103.908554
20
624.194176
11
104.527121
21
623.440735
0
LINE
8
0
10
104.527121
20
623.440735
11
104.733310
21
622.507459
0
LINE
8
0
10
104.733310
20
622.507459
11
104.635641
21
621.885792
0
LINE
8
0
10
104.635641
20
621.885792
11
104.342635
21
621.273428
0
LINE
8
0
10
104.342635
20
621.273428
11
103.860495
21
620.737027
0
LINE
8
0
10
103.860495
20
620.737027
11
103.195421
21
620.330851
0
LINE
8
0
10
103.195421
20
620.330851
11
103.195421
21
620.293643
0
LINE
8
0
10
103.195421
20
620.293643
11
103.961265
21
619.878165
0
LINE
8
0
10
103.961265
20
619.878165
11
104.522469
21
619.375871
0
LINE
8
0
10
104.522469
20
619.375871
11
104.866635
21
618.755754
0
LINE
8
0
10
104.866635
20
618.755754
11
104.981357
21
617.986810
0
LINE
8
0
10
104.981357
20
617.986810
11
104.981357
21
617.986810
0
LINE
8
0
10
103.511680
20
622.495055
11
103.383006
21
623.090369
0
LINE
8
0
10
103.383006
20
623.090369
11
102.996984
21
623.549255
0
LINE
8
0
10
102.996984
20
623.549255
11
102.417174
21
623.846911
0
LINE
8
0
10
102.417174
20
623.846911
11
101.694738
21
623.946129
0
LINE
8
0
10
101.694738
20
623.946129
11
100.983155
21
623.853112
0
LINE
8
0
10
100.983155
20
623.853112
11
100.411098
21
623.574059
0
LINE
8
0
10
100.411098
20
623.574059
11
100.039028
21
623.136877
0
LINE
8
0
10
100.039028
20
623.136877
11
99.915005
21
622.569469
0
LINE
8
0
10
99.915005
20
622.569469
11
100.163051
21
621.794326
0
LINE
8
0
10
100.163051
20
621.794326
11
100.925794
21
621.217617
0
LINE
8
0
10
100.925794
20
621.217617
11
101.583119
21
620.926163
0
LINE
8
0
10
101.583119
20
620.926163
11
102.426477
21
620.628507
0
LINE
8
0
10
102.426477
20
620.628507
11
103.276034
21
621.478065
0
LINE
8
0
10
103.276034
20
621.478065
11
103.511680
21
622.495055
0
LINE
8
0
10
103.511680
20
622.495055
11
103.511680
21
622.495055
0
LINE
8
0
10
103.703915
20
617.868988
11
103.640353
21
618.382135
0
LINE
8
0
10
103.640353
20
618.382135
11
103.449667
21
618.780559
0
LINE
8
0
10
103.449667
20
618.780559
11
102.469884
21
619.475089
0
LINE
8
0
10
102.469884
20
619.475089
11
101.831165
21
619.729338
0
LINE
8
0
10
101.831165
20
619.729338
11
100.907191
21
620.058000
0
LINE
8
0
10
100.907191
20
620.058000
11
100.403346
21
619.699882
0
LINE
8
0
10
100.403346
20
619.699882
11
100.008022
21
619.233245
0
LINE
8
0
10
100.008022
20
619.233245
11
99.756875
21
618.678240
0
LINE
8
0
10
99.756875
20
618.678240
11
99.673160
21
618.055022
0
LINE
8
0
10
99.673160
20
618.055022
11
99.817337
21
617.290729
0
LINE
8
0
10
99.817337
20
617.290729
11
100.249866
21
616.672163
0
LINE
8
0
10
100.249866
20
616.672163
11
100.904089
21
616.262886
0
LINE
8
0
10
100.904089
20
616.262886
11
101.713341
21
616.126461
0
LINE
8
0
10
101.713341
20
616.126461
11
102.527245
21
616.242732
0
LINE
8
0
10
102.527245
20
616.242732
11
103.158213
21
616.591547
0
LINE
8
0
10
103.158213
20
616.591547
11
103.567490
21
617.143452
0
LINE
8
0
10
103.567490
20
617.143452
11
103.703915
21
617.868988
0
LINE
8
0
10
103.703915
20
617.868988
11
103.703915
21
617.868988
0
LINE
8
0
10
143.820514
20
231.593914
11
142.660897
21
231.593914
0
LINE
8
0
10
142.660897
20
231.593914
11
142.660897
21
232.331836
0
LINE
8
0
10
142.660897
20
232.331836
11
142.239218
21
232.034180
0
LINE
8
0
10
142.239218
20
232.034180
11
141.730721
21
231.736524
0
LINE
8
0
10
141.730721
20
231.736524
11
141.060995
21
231.500886
0
LINE
8
0
10
141.060995
20
231.500886
11
140.174229
21
231.401668
0
LINE
8
0
10
140.174229
20
231.401668
11
139.309167
21
231.556700
0
LINE
8
0
10
139.309167
20
231.556700
11
138.586731
21
232.021797
0
LINE
8
0
10
138.586731
20
232.021797
11
138.098389
21
232.727169
0
LINE
8
0
10
138.098389
20
232.727169
11
137.935608
21
233.603078
0
LINE
8
0
10
137.935608
20
233.603078
11
138.019324
21
234.314667
0
LINE
8
0
10
138.019324
20
234.314667
11
138.270473
21
234.874319
0
LINE
8
0
10
138.270473
20
234.874319
11
138.682850
21
235.311510
0
LINE
8
0
10
138.682850
20
235.311510
11
139.237854
21
235.643277
0
LINE
8
0
10
139.237854
20
235.643277
11
140.757137
21
236.021551
0
LINE
8
0
10
140.757137
20
236.021551
11
142.660897
21
236.170379
0
LINE
8
0
10
142.660897
20
236.170379
11
142.660897
21
236.350190
0
LINE
8
0
10
142.660897
20
236.350190
11
142.518268
21
237.007520
0
LINE
8
0
10
142.518268
20
237.007520
11
142.121393
21
237.416803
0
LINE
8
0
10
142.121393
20
237.416803
11
141.526082
21
237.609049
0
LINE
8
0
10
141.526082
20
237.609049
11
140.800547
21
237.658659
0
LINE
8
0
10
140.800547
20
237.658659
11
139.777355
21
237.534622
0
LINE
8
0
10
139.777355
20
237.534622
11
138.611536
21
237.187357
0
LINE
8
0
10
138.611536
20
237.187357
11
138.549523
21
237.187357
0
LINE
8
0
10
138.549523
20
237.187357
11
138.549523
21
238.371789
0
LINE
8
0
10
138.549523
20
238.371789
11
139.535510
21
238.576418
0
LINE
8
0
10
139.535510
20
238.576418
11
140.806747
21
238.688045
0
LINE
8
0
10
140.806747
20
238.688045
11
142.077986
21
238.564009
0
LINE
8
0
10
142.077986
20
238.564009
11
143.020563
21
238.154752
0
LINE
8
0
10
143.020563
20
238.154752
11
143.615875
21
237.416803
0
LINE
8
0
10
143.615875
20
237.416803
11
143.820514
21
236.294389
0
LINE
8
0
10
143.820514
20
236.294389
11
143.820514
21
231.593914
0
LINE
8
0
10
142.660897
20
233.299230
11
142.660897
21
235.227802
0
LINE
8
0
10
142.660897
20
235.227802
11
141.402058
21
235.134775
0
LINE
8
0
10
141.402058
20
235.134775
11
140.261044
21
234.954938
0
LINE
8
0
10
140.261044
20
234.954938
11
139.448692
21
234.508454
0
LINE
8
0
10
139.448692
20
234.508454
11
139.216150
21
234.153437
0
LINE
8
0
10
139.216150
20
234.153437
11
139.138636
21
233.683696
0
LINE
8
0
10
139.138636
20
233.683696
11
139.228552
21
233.161250
0
LINE
8
0
10
139.228552
20
233.161250
11
139.498302
21
232.784537
0
LINE
8
0
10
139.498302
20
232.784537
11
139.952538
21
232.561295
0
LINE
8
0
10
139.952538
20
232.561295
11
140.595908
21
232.486881
0
LINE
8
0
10
140.595908
20
232.486881
11
141.718320
21
232.722519
0
LINE
8
0
10
141.718320
20
232.722519
11
142.660897
21
233.299230
0
LINE
8
0
10
142.660897
20
233.299230
11
142.660897
21
233.299230
0
LINE
8
0
10
195.293276
20
234.391138
11
195.045230
21
232.828458
0
LINE
8
0
10
195.045230
20
232.828458
11
194.387905
21
231.662626
0
LINE
8
0
10
194.387905
20
231.662626
11
193.420523
21
230.924704
0
LINE
8
0
10
193.420523
20
230.924704
11
192.260906
21
230.682848
0
LINE
8
0
10
192.260906
20
230.682848
11
191.231515
21
230.825485
0
LINE
8
0
10
191.231515
20
230.825485
11
190.363352
21
231.197542
0
LINE
8
0
10
190.363352
20
231.197542
11
190.288938
21
230.875094
0
LINE
8
0
10
190.288938
20
230.875094
11
189.197533
21
230.875094
0
LINE
8
0
10
189.197533
20
230.875094
11
189.197533
21
240.524093
0
LINE
8
0
10
189.197533
20
240.524093
11
190.363352
21
240.524093
0
LINE
8
0
10
190.363352
20
240.524093
11
190.363352
21
237.076259
0
LINE
8
0
10
190.363352
20
237.076259
11
191.405147
21
237.733589
0
LINE
8
0
10
191.405147
20
237.733589
11
192.645380
21
237.994018
0
LINE
8
0
10
192.645380
20
237.994018
11
193.742985
21
237.758373
0
LINE
8
0
10
193.742985
20
237.758373
11
194.580143
21
237.051441
0
LINE
8
0
10
194.580143
20
237.051441
11
195.114993
21
235.915077
0
LINE
8
0
10
195.114993
20
235.915077
11
195.293276
21
234.391138
0
LINE
8
0
10
195.293276
20
234.391138
11
195.293276
21
234.391138
0
LINE
8
0
10
194.090249
20
234.360155
11
193.987930
21
235.450006
0
LINE
8
0
10
193.987930
20
235.450006
11
193.680974
21
236.239091
0
LINE
8
0
10
193.680974
20
236.239091
11
193.146122
21
236.722782
0
LINE
8
0
10
193.146122
20
236.722782
11
192.360125
21
236.884013
0
LINE
8
0
10
192.360125
20
236.884013
11
191.330733
21
236.660784
0
LINE
8
0
10
191.330733
20
236.660784
11
190.363352
21
236.096481
0
LINE
8
0
10
190.363352
20
236.096481
11
190.363352
21
232.127736
0
LINE
8
0
10
190.363352
20
232.127736
11
191.212909
21
231.817671
0
LINE
8
0
10
191.212909
20
231.817671
11
192.025264
21
231.730862
0
LINE
8
0
10
192.025264
20
231.730862
11
192.887225
21
231.888990
0
LINE
8
0
10
192.887225
20
231.888990
11
193.538348
21
232.363374
0
LINE
8
0
10
193.538348
20
232.363374
11
193.952274
21
233.181921
0
LINE
8
0
10
193.952274
20
233.181921
11
194.090249
21
234.360155
0
LINE
8
0
10
194.090249
20
234.360155
11
194.090249
21
234.360155
0
LINE
8
0
10
244.746704
20
231.764570
11
243.636694
21
231.330495
0
LINE
8
0
10
243.636694
20
231.330495
11
242.526686
21
231.175449
0
LINE
8
0
10
242.526686
20
231.175449
11
241.150029
21
231.392487
0
LINE
8
0
10
241.150029
20
231.392487
11
240.077227
21
232.062225
0
LINE
8
0
10
240.077227
20
232.062225
11
239.376495
21
233.190831
0
LINE
8
0
10
239.376495
20
233.190831
11
239.128449
21
234.784546
0
LINE
8
0
10
239.128449
20
234.784546
11
239.360993
21
236.300719
0
LINE
8
0
10
239.360993
20
236.300719
11
240.058624
21
237.451040
0
LINE
8
0
10
240.058624
20
237.451040
11
241.143828
21
238.176567
0
LINE
8
0
10
241.143828
20
238.176567
11
242.526686
21
238.418409
0
LINE
8
0
10
242.526686
20
238.418409
11
243.692505
21
238.250981
0
LINE
8
0
10
243.692505
20
238.250981
11
244.746704
21
237.841697
0
LINE
8
0
10
244.746704
20
237.841697
11
244.746704
21
236.545664
0
LINE
8
0
10
244.746704
20
236.545664
11
244.684692
21
236.545664
0
LINE
8
0
10
244.684692
20
236.545664
11
243.580886
21
237.184394
0
LINE
8
0
10
243.580886
20
237.184394
11
242.477077
21
237.407622
0
LINE
8
0
10
242.477077
20
237.407622
11
241.588760
21
237.240194
0
LINE
8
0
10
241.588760
20
237.240194
11
240.908182
21
236.737910
0
LINE
8
0
10
240.908182
20
236.737910
11
240.480302
21
235.917808
0
LINE
8
0
10
240.480302
20
235.917808
11
240.337675
21
234.784546
0
LINE
8
0
10
240.337675
20
234.784546
11
240.477201
21
233.676083
0
LINE
8
0
10
240.477201
20
233.676083
11
240.895781
21
232.855975
0
LINE
8
0
10
240.895781
20
232.855975
11
241.573258
21
232.353670
0
LINE
8
0
10
241.573258
20
232.353670
11
242.477077
21
232.186236
0
LINE
8
0
10
242.477077
20
232.186236
11
243.196412
21
232.279263
0
LINE
8
0
10
243.196412
20
232.279263
11
243.853737
21
232.521118
0
LINE
8
0
10
243.853737
20
232.521118
11
244.331225
21
232.793956
0
LINE
8
0
10
244.331225
20
232.793956
11
244.684692
21
233.048221
0
LINE
8
0
10
244.684692
20
233.048221
11
244.746704
21
233.048221
0
LINE
8
0
10
244.746704
20
233.048221
11
244.746704
21
231.764570
0
LINE
8
0
10
294.953662
20
230.788153
11
293.787830
21
230.788153
0
LINE
8
0
10
293.787830
20
230.788153
11
293.787830
21
231.513692
0
LINE
8
0
10
293.787830
20
231.513692
11
292.739843
21
230.837762
0
LINE
8
0
10
292.739843
20
230.837762
11
291.555411
21
230.595907
0
LINE
8
0
10
291.555411
20
230.595907
11
290.442304
21
230.834653
0
LINE
8
0
10
290.442304
20
230.834653
11
289.583448
21
231.550892
0
LINE
8
0
10
289.583448
20
231.550892
11
289.039293
21
232.690359
0
LINE
8
0
10
289.039293
20
232.690359
11
288.857908
21
234.198786
0
LINE
8
0
10
288.857908
20
234.198786
11
289.105955
21
235.767684
0
LINE
8
0
10
289.105955
20
235.767684
11
289.788076
21
236.939707
0
LINE
8
0
10
289.788076
20
236.939707
11
290.767880
21
237.659029
0
LINE
8
0
10
290.767880
20
237.659029
11
291.933686
21
237.907076
0
LINE
8
0
10
291.933686
20
237.907076
11
292.901080
21
237.789257
0
LINE
8
0
10
292.901080
20
237.789257
11
293.787830
21
237.435800
0
LINE
8
0
10
293.787830
20
237.435800
11
293.787830
21
240.437151
0
LINE
8
0
10
293.787830
20
240.437151
11
294.953662
21
240.437151
0
LINE
8
0
10
294.953662
20
240.437151
11
294.953662
21
230.788153
0
LINE
8
0
10
293.787830
20
232.493469
11
293.787830
21
236.468406
0
LINE
8
0
10
293.787830
20
236.468406
11
292.944472
21
236.759870
0
LINE
8
0
10
292.944472
20
236.759870
11
292.132123
21
236.840489
0
LINE
8
0
10
292.132123
20
236.840489
11
291.260864
21
236.669952
0
LINE
8
0
10
291.260864
20
236.669952
11
290.606643
21
236.158341
0
LINE
8
0
10
290.606643
20
236.158341
11
290.197366
21
235.333589
0
LINE
8
0
10
290.197366
20
235.333589
11
290.060941
21
234.223578
0
LINE
8
0
10
290.060941
20
234.223578
11
290.166357
21
233.136836
0
LINE
8
0
10
290.166357
20
233.136836
11
290.482607
21
232.344641
0
LINE
8
0
10
290.482607
20
232.344641
11
291.031418
21
231.865594
0
LINE
8
0
10
291.031418
20
231.865594
11
291.834467
21
231.705912
0
LINE
8
0
10
291.834467
20
231.705912
11
292.839062
21
231.922949
0
LINE
8
0
10
292.839062
20
231.922949
11
293.787830
21
232.493469
0
LINE
8
0
10
293.787830
20
232.493469
11
293.787830
21
232.493469
0
LINE
8
0
10
344.547708
20
233.711080
11
339.444167
21
233.711080
0
LINE
8
0
10
339.444167
20
233.711080
11
339.636386
21
232.594884
0
LINE
8
0
10
339.636386
20
232.594884
11
340.163489
21
231.819735
0
LINE
8
0
10
340.163489
20
231.819735
11
340.926229
21
231.373251
0
LINE
8
0
10
340.926229
20
231.373251
11
341.906032
21
231.224423
0
LINE
8
0
10
341.906032
20
231.224423
11
343.326102
21
231.503479
0
LINE
8
0
10
343.326102
20
231.503479
11
344.349271
21
232.061591
0
LINE
8
0
10
344.349271
20
232.061591
11
344.411289
21
232.061591
0
LINE
8
0
10
344.411289
20
232.061591
11
344.411289
21
230.790349
0
LINE
8
0
10
344.411289
20
230.790349
11
343.208257
21
230.374874
0
LINE
8
0
10
343.208257
20
230.374874
11
341.918415
21
230.207419
0
LINE
8
0
10
341.918415
20
230.207419
11
340.383635
21
230.439968
0
LINE
8
0
10
340.383635
20
230.439968
11
339.227130
21
231.137614
0
LINE
8
0
10
339.227130
20
231.137614
11
338.803894
21
231.654629
0
LINE
8
0
10
338.803894
20
231.654629
11
338.501583
21
232.269315
0
LINE
8
0
10
338.501583
20
232.269315
11
338.259735
21
233.791699
0
LINE
8
0
10
338.259735
20
233.791699
11
338.490729
21
235.315637
0
LINE
8
0
10
338.490729
20
235.315637
11
339.183711
21
236.489202
0
LINE
8
0
10
339.183711
20
236.489202
11
340.259612
21
237.238005
0
LINE
8
0
10
340.259612
20
237.238005
11
341.626977
21
237.487606
0
LINE
8
0
10
341.626977
20
237.487606
11
342.867209
21
237.282964
0
LINE
8
0
10
342.867209
20
237.282964
11
343.784969
21
236.669039
0
LINE
8
0
10
343.784969
20
236.669039
11
344.357023
21
235.678414
0
LINE
8
0
10
344.357023
20
235.678414
11
344.547708
21
234.343619
0
LINE
8
0
10
344.547708
20
234.343619
11
344.547708
21
233.711080
0
LINE
8
0
10
343.412912
20
234.604048
11
343.293466
21
235.417958
0
LINE
8
0
10
343.293466
20
235.417958
11
342.947828
21
236.024118
0
LINE
8
0
10
342.947828
20
236.024118
11
342.375760
21
236.400851
0
LINE
8
0
10
342.375760
20
236.400851
11
341.564958
21
236.526429
0
LINE
8
0
10
341.564958
20
236.526429
11
340.723148
21
236.388449
0
LINE
8
0
10
340.723148
20
236.388449
11
340.070488
21
235.974508
0
LINE
8
0
10
340.070488
20
235.974508
11
339.637948
21
235.355947
0
LINE
8
0
10
339.637948
20
235.355947
11
339.444167
21
234.604048
0
LINE
8
0
10
339.444167
20
234.604048
11
343.412912
21
234.604048
0
LINE
8
0
10
395.977908
20
238.295695
11
395.915916
21
238.295695
0
LINE
8
0
10
395.915916
20
238.295695
11
395.413605
21
238.407296
0
LINE
8
0
10
395.413605
20
238.407296
11
394.867903
21
238.469315
0
LINE
8
0
10
394.867903
20
238.469315
11
394.219886
21
238.385600
0
LINE
8
0
10
394.219886
20
238.385600
11
393.776498
21
238.134458
0
LINE
8
0
10
393.776498
20
238.134458
11
393.525355
21
237.670922
0
LINE
8
0
10
393.525355
20
237.670922
11
393.441641
21
236.937644
0
LINE
8
0
10
393.441641
20
236.937644
11
393.441641
21
236.701979
0
LINE
8
0
10
393.441641
20
236.701979
11
395.543833
21
236.701979
0
LINE
8
0
10
395.543833
20
236.701979
11
395.543833
21
235.722202
0
LINE
8
0
10
395.543833
20
235.722202
11
393.478842
21
235.722202
0
LINE
8
0
10
393.478842
20
235.722202
11
393.478842
21
229.775276
0
LINE
8
0
10
393.478842
20
229.775276
11
392.313036
21
229.775276
0
LINE
8
0
10
392.313036
20
229.775276
11
392.313036
21
235.722202
0
LINE
8
0
10
392.313036
20
235.722202
11
391.525478
21
235.722202
0
LINE
8
0
10
391.525478
20
235.722202
11
391.525478
21
236.701979
0
LINE
8
0
10
391.525478
20
236.701979
11
392.313036
21
236.701979
0
LINE
8
0
10
392.313036
20
236.701979
11
392.313036
21
236.931426
0
LINE
8
0
10
392.313036
20
236.931426
11
392.466514
21
238.021290
0
LINE
8
0
10
392.466514
20
238.021290
11
392.926948
21
238.822797
0
LINE
8
0
10
392.926948
20
238.822797
11
393.677286
21
239.320438
0
LINE
8
0
10
393.677286
20
239.320438
11
394.700474
21
239.486319
0
LINE
8
0
10
394.700474
20
239.486319
11
395.401196
21
239.449092
0
LINE
8
0
10
395.401196
20
239.449092
11
395.977908
21
239.362282
0
LINE
8
0
10
395.977908
20
239.362282
11
395.977908
21
238.295695
0
LINE
8
0
10
445.012122
20
233.094840
11
444.812137
21
231.567812
0
LINE
8
0
10
444.812137
20
231.567812
11
444.212182
21
230.508965
0
LINE
8
0
10
444.212182
20
230.508965
11
443.196746
21
229.890396
0
LINE
8
0
10
443.196746
20
229.890396
11
441.750317
21
229.684206
0
LINE
8
0
10
441.750317
20
229.684206
11
440.671321
21
229.764825
0
LINE
8
0
10
440.671321
20
229.764825
11
439.641934
21
229.981862
0
LINE
8
0
10
439.641934
20
229.981862
11
439.641934
21
231.172486
0
LINE
8
0
10
439.641934
20
231.172486
11
439.703926
21
231.172486
0
LINE
8
0
10
439.703926
20
231.172486
11
440.609303
21
230.899648
0
LINE
8
0
10
440.609303
20
230.899648
11
441.849535
21
230.732193
0
LINE
8
0
10
441.849535
20
230.732193
11
442.835530
21
230.874830
0
LINE
8
0
10
442.835530
20
230.874830
11
443.443251
21
231.271704
0
LINE
8
0
10
443.443251
20
231.271704
11
443.753289
21
231.854607
0
LINE
8
0
10
443.753289
20
231.854607
11
443.846317
21
232.617347
0
LINE
8
0
10
443.846317
20
232.617347
11
443.846317
21
233.249886
0
LINE
8
0
10
443.846317
20
233.249886
11
442.835530
21
232.617347
0
LINE
8
0
10
442.835530
20
232.617347
11
441.613898
21
232.412719
0
LINE
8
0
10
441.613898
20
232.412719
11
440.500791
21
232.635961
0
LINE
8
0
10
440.500791
20
232.635961
11
439.641934
21
233.305686
0
LINE
8
0
10
439.641934
20
233.305686
11
439.097780
21
234.387784
0
LINE
8
0
10
439.097780
20
234.387784
11
438.916395
21
235.835761
0
LINE
8
0
10
438.916395
20
235.835761
11
439.164441
21
237.373650
0
LINE
8
0
10
439.164441
20
237.373650
11
439.852754
21
238.496064
0
LINE
8
0
10
439.852754
20
238.496064
11
440.832558
21
239.178185
0
LINE
8
0
10
440.832558
20
239.178185
11
441.979763
21
239.426232
0
LINE
8
0
10
441.979763
20
239.426232
11
442.984358
21
239.302222
0
LINE
8
0
10
442.984358
20
239.302222
11
443.846317
21
238.936356
0
LINE
8
0
10
443.846317
20
238.936356
11
443.920718
21
239.234012
0
LINE
8
0
10
443.920718
20
239.234012
11
445.012122
21
239.234012
0
LINE
8
0
10
445.012122
20
239.234012
11
445.012122
21
233.094840
0
LINE
8
0
10
443.846317
20
234.211063
11
443.846317
21
237.987562
0
LINE
8
0
10
443.846317
20
237.987562
11
442.978141
21
238.285218
0
LINE
8
0
10
442.978141
20
238.285218
11
442.184392
21
238.378245
0
LINE
8
0
10
442.184392
20
238.378245
11
441.325535
21
238.217015
0
LINE
8
0
10
441.325535
20
238.217015
11
440.671321
21
237.733324
0
LINE
8
0
10
440.671321
20
237.733324
11
440.257401
21
236.942677
0
LINE
8
0
10
440.257401
20
236.942677
11
440.119427
21
235.860579
0
LINE
8
0
10
440.119427
20
235.860579
11
440.221741
21
234.835829
0
LINE
8
0
10
440.221741
20
234.835829
11
440.528684
21
234.093244
0
LINE
8
0
10
440.528684
20
234.093244
11
441.072839
21
233.642097
0
LINE
8
0
10
441.072839
20
233.642097
11
441.886736
21
233.491715
0
LINE
8
0
10
441.886736
20
233.491715
11
442.903740
21
233.683961
0
LINE
8
0
10
442.903740
20
233.683961
11
443.846317
21
234.211063
0
LINE
8
0
10
443.846317
20
234.211063
11
443.846317
21
234.211063
0
LINE
8
0
10
495.858519
20
229.565620
11
494.692687
21
229.565620
0
LINE
8
0
10
494.692687
20
229.565620
11
494.692687
21
233.509547
0
LINE
8
0
10
494.692687
20
233.509547
11
494.636887
21
234.402515
0
LINE
8
0
10
494.636887
20
234.402515
11
494.432258
21
235.059845
0
LINE
8
0
10
494.432258
20
235.059845
11
493.985774
21
235.444311
0
LINE
8
0
10
493.985774
20
235.444311
11
493.229226
21
235.574538
0
LINE
8
0
10
493.229226
20
235.574538
11
492.230822
21
235.338901
0
LINE
8
0
10
492.230822
20
235.338901
11
491.232444
21
234.737371
0
LINE
8
0
10
491.232444
20
234.737371
11
491.232444
21
229.565620
0
LINE
8
0
10
491.232444
20
229.565620
11
490.066639
21
229.565620
0
LINE
8
0
10
490.066639
20
229.565620
11
490.066639
21
239.214618
0
LINE
8
0
10
490.066639
20
239.214618
11
491.232444
21
239.214618
0
LINE
8
0
10
491.232444
20
239.214618
11
491.232444
21
235.723366
0
LINE
8
0
10
491.232444
20
235.723366
11
492.361049
21
236.430306
0
LINE
8
0
10
492.361049
20
236.430306
11
493.557891
21
236.684543
0
LINE
8
0
10
493.557891
20
236.684543
11
494.546975
21
236.515561
0
LINE
8
0
10
494.546975
20
236.515561
11
495.269399
21
236.008613
0
LINE
8
0
10
495.269399
20
236.008613
11
495.711239
21
235.183862
0
LINE
8
0
10
495.711239
20
235.183862
11
495.858519
21
234.061468
0
LINE
8
0
10
495.858519
20
234.061468
11
495.858519
21
229.565620
 0 
ENDSEC
 0 
EOF