<?xml version="1.0" encoding="UTF-8" standalone="no"?>
<svg
   viewBox="0 0 2245.0394 3178.5828"
   width="594mm"
   height="841mm"
   version="1.1"
   id="svg32"
   sodipodi:docname="Topshell.svg"
   xml:space="preserve"
   inkscape:version="1.3.2 (091e20e, 2023-11-25, custom)"
   inkscape:export-filename="Topshell.pdf"
   inkscape:export-xdpi="96"
   inkscape:export-ydpi="96"
   xmlns:inkscape="http://www.inkscape.org/namespaces/inkscape"
   xmlns:sodipodi="http://sodipodi.sourceforge.net/DTD/sodipodi-0.dtd"
   xmlns="http://www.w3.org/2000/svg"
   xmlns:svg="http://www.w3.org/2000/svg"><sodipodi:namedview
     id="namedview32"
     pagecolor="#ffffff"
     bordercolor="#000000"
     borderopacity="0.25"
     inkscape:showpageshadow="2"
     inkscape:pageopacity="0.0"
     inkscape:pagecheckerboard="0"
     inkscape:deskcolor="#d1d1d1"
     inkscape:zoom="0.26124264"
     inkscape:cx="1274.677"
     inkscape:cy="1755.0734"
     inkscape:window-width="2560"
     inkscape:window-height="1369"
     inkscape:window-x="-8"
     inkscape:window-y="-8"
     inkscape:window-maximized="1"
     inkscape:current-layer="g32"
     inkscape:export-bgcolor="#00000000"
     inkscape:document-units="mm" /><desc
     id="desc1">Topshell.DXF - scale = 1.000000, origin = (0.000000, 0.000000), method = manual</desc><defs
     id="defs4"><marker
       id="DistanceX"
       orient="auto"
       refX="0"
       refY="0"
       style="overflow:visible"><path
         d="M 3,-3 -3,3 M 0,-5 V 5"
         style="stroke:#000000;stroke-width:0.5"
         id="path1" /></marker><pattern
       id="Hatch"
       patternUnits="userSpaceOnUse"
       width="8"
       height="8"
       x="0"
       y="0"><path
         d="M8 4 l-4,4"
         stroke="#000000"
         stroke-width="0.25"
         linecap="square"
         id="path2" /><path
         d="M6 2 l-4,4"
         stroke="#000000"
         stroke-width="0.25"
         linecap="square"
         id="path3" /><path
         d="M4 0 l-4,4"
         stroke="#000000"
         stroke-width="0.25"
         linecap="square"
         id="path4" /></pattern><symbol
       id="*Model_Space" /><symbol
       id="*Paper_Space" /><symbol
       id="*Paper_Space0" /><marker
       id="DistanceX-9"
       orient="auto"
       refX="0"
       refY="0"
       style="overflow:visible"><path
         d="M 3,-3 -3,3 M 0,-5 V 5"
         style="stroke:#000000;stroke-width:0.5"
         id="path1-0" /></marker><pattern
       id="Hatch-3"
       patternUnits="userSpaceOnUse"
       width="8"
       height="8"
       x="0"
       y="0"><path
         d="M8 4 l-4,4"
         stroke="#000000"
         stroke-width="0.25"
         linecap="square"
         id="path2-9" /><path
         d="M6 2 l-4,4"
         stroke="#000000"
         stroke-width="0.25"
         linecap="square"
         id="path3-9" /><path
         d="M4 0 l-4,4"
         stroke="#000000"
         stroke-width="0.25"
         linecap="square"
         id="path4-6" /></pattern><symbol
       id="*Model_Space-0" /><symbol
       id="*Paper_Space-9" /><symbol
       id="*Paper_Space0-0" /></defs><g
     inkscape:groupmode="layer"
     inkscape:label="0"
     id="g32"><path
       style="fill:none;stroke:#000000;stroke-linecap:round"
       d="M 423.30469,614.1763 H 1821.7347"
       id="path5" /><path
       style="fill:none;stroke:#000000;stroke-linecap:round"
       d="m 423.30469,614.1763 v 1889.76"
       id="path6" /><path
       style="fill:none;stroke:#000000;stroke-linecap:round"
       d="M 423.30469,2503.9363 H 1821.7347"
       id="path7" /><path
       style="fill:none;stroke:#000000;stroke-linecap:round"
       d="m 1821.7347,614.1763 v 1889.76"
       id="path8" /><path
       style="fill:none;stroke:#000000;stroke-linecap:round"
       d="M 422.54869,2504.6963 H 1822.4847"
       id="path9" /><path
       style="fill:none;stroke:#000000;stroke-linecap:round"
       d="M 422.54869,2504.6963 V 613.4163"
       id="path10" /><path
       style="fill:none;stroke:#000000;stroke-linecap:round"
       d="M 422.54869,613.4163 H 1822.4847"
       id="path11" /><path
       style="fill:none;stroke:#000000;stroke-linecap:round"
       d="M 1822.4847,2504.6963 V 613.4163"
       id="path12" /><path
       d="m -143.24633,85.0394 a 19.275591,19.275591 0 0 0 -38.55118,0 19.275591,19.275591 0 0 0 38.55118,0 z"
       style="fill:none;stroke:#000000;stroke-width:3.571;stroke-linecap:round"
       id="path13" /><path
       d="m -143.24633,3093.5433 a 19.275591,19.275591 0 0 0 -38.55118,0 19.275591,19.275591 0 0 0 38.55118,0 z"
       style="fill:none;stroke:#000000;stroke-width:3.571;stroke-linecap:round"
       id="path14" /><path
       d="m 2426.8324,85.0394 a 19.2756,19.2756 0 0 0 -38.5512,0 19.2756,19.2756 0 0 0 38.5512,0 z"
       style="fill:none;stroke:#000000;stroke-width:3.571;stroke-linecap:round"
       id="path15" /><path
       d="m 2426.8324,3093.5433 a 19.2756,19.2756 0 0 0 -38.5512,0 19.2756,19.2756 0 0 0 38.5512,0 z"
       style="fill:none;stroke:#000000;stroke-width:3.571;stroke-linecap:round"
       id="path16" /><path
       d="m 536.69067,2428.3465 a 37.795276,37.795276 0 0 0 -75.59055,0 37.795276,37.795276 0 0 0 75.59055,0 z"
       style="fill:#ffffff;stroke:#000000;stroke-width:3.571;stroke-linecap:round"
       id="path17" /><path
       d="m 536.69067,689.7638 a 37.795276,37.795276 0 0 0 -75.59055,0 37.795276,37.795276 0 0 0 75.59055,0 z"
       style="fill:#ffffff;stroke:#000000;stroke-width:3.571;stroke-linecap:round"
       id="path18" /><path
       d="m 1028.0293,689.7638 a 37.795305,37.795305 0 0 0 -75.59061,0 37.795305,37.795305 0 0 0 75.59061,0 z"
       style="fill:#ffffff;stroke:#000000;stroke-width:3.571;stroke-linecap:round"
       id="path19" /><path
       d="m 1292.5962,689.7638 a 37.7953,37.7953 0 0 0 -75.5906,0 37.7953,37.7953 0 0 0 75.5906,0 z"
       style="fill:#ffffff;stroke:#000000;stroke-width:3.571;stroke-linecap:round"
       id="path20" /><path
       d="m 1783.9348,689.7638 a 37.7953,37.7953 0 0 0 -75.5906,0 37.7953,37.7953 0 0 0 75.5906,0 z"
       style="fill:#ffffff;stroke:#000000;stroke-width:3.571;stroke-linecap:round"
       id="path21" /><path
       d="m 1783.9348,2428.3465 a 37.7953,37.7953 0 0 0 -75.5906,0 37.7953,37.7953 0 0 0 75.5906,0 z"
       style="fill:#ffffff;stroke:#000000;stroke-width:3.571;stroke-linecap:round"
       id="path22" /><path
       d="m 1292.5962,2428.3465 a 37.7953,37.7953 0 0 0 -75.5906,0 37.7953,37.7953 0 0 0 75.5906,0 z"
       style="fill:#ffffff;stroke:#000000;stroke-width:3.571;stroke-linecap:round"
       id="path23" /><path
       d="m 1028.0293,2428.3465 a 37.795305,37.795305 0 0 0 -75.59061,0 37.795305,37.795305 0 0 0 75.59061,0 z"
       style="fill:#ffffff;stroke:#000000;stroke-width:3.571;stroke-linecap:round"
       id="path24" /><path
       style="fill:none;stroke:#000000;stroke-width:3.571;stroke-linecap:round"
       d="M 1878.4247,803.1463 H 366.61169"
       id="path25" /><path
       style="fill:none;stroke:#000000;stroke-width:3.571;stroke-linecap:round"
       d="m 366.61169,803.1463 v 1511.81"
       id="path26" /><path
       style="fill:none;stroke:#000000;stroke-width:3.571;stroke-linecap:round"
       d="M 1878.4247,2314.9563 V 803.1463"
       id="path27" /><path
       style="fill:none;stroke:#000000;stroke-width:3.571;stroke-linecap:round"
       d="M 366.61169,2314.9563 H 1878.4247"
       id="path28" /><path
       style="fill:#000000;stroke:#000000;stroke-width:3.571;stroke-linecap:round"
       d="M -215.43531,32.1263 H 2460.4747"
       id="path29" /><path
       style="fill:#000000;stroke:#000000;stroke-width:3.571;stroke-linecap:round"
       d="m 2460.4747,32.1263 v 3114.33"
       id="path30" /><path
       style="fill:#000000;stroke:#000000;stroke-width:3.571;stroke-linecap:round"
       d="M 2460.4747,3146.4563 H -215.43531"
       id="path31" /><path
       style="fill:#000000;stroke:#000000;stroke-width:3.571;stroke-linecap:round"
       d="M -215.43531,3146.4563 V 32.1263"
       id="path32" /><rect
       style="fill:#ffffff"
       id="use223"
       width="188.97638"
       height="188.97638"
       x="366.61273"
       y="803.14575"
       inkscape:tile-x0="381.64546"
       inkscape:tile-y0="814.71839" /><rect
       style="fill:#000000"
       id="use224"
       width="188.97638"
       height="188.97638"
       x="366.61273"
       y="992.12219"
       inkscape:tile-x0="381.64546"
       inkscape:tile-y0="814.71839" /><rect
       style="fill:#ffffff"
       id="use225"
       width="188.97638"
       height="188.97638"
       x="366.61273"
       y="1181.0985"
       inkscape:tile-x0="381.64546"
       inkscape:tile-y0="814.71839" /><rect
       style="fill:#000000"
       id="use226"
       width="188.97638"
       height="188.97638"
       x="366.61273"
       y="1370.0748"
       inkscape:tile-x0="381.64546"
       inkscape:tile-y0="814.71839" /><rect
       style="fill:#ffffff"
       id="use227"
       width="188.97638"
       height="188.97638"
       x="366.61273"
       y="1559.0514"
       inkscape:tile-x0="381.64546"
       inkscape:tile-y0="814.71839" /><rect
       style="fill:#000000"
       id="use228"
       width="188.97638"
       height="188.97638"
       x="366.61273"
       y="1748.0277"
       inkscape:tile-x0="381.64546"
       inkscape:tile-y0="814.71839" /><rect
       style="fill:#ffffff"
       id="use229"
       width="188.97638"
       height="188.97638"
       x="366.61273"
       y="1937.004"
       inkscape:tile-x0="381.64546"
       inkscape:tile-y0="814.71839" /><rect
       style="fill:#000000"
       id="use230"
       width="188.97638"
       height="188.97638"
       x="366.61273"
       y="2125.9805"
       inkscape:tile-x0="381.64546"
       inkscape:tile-y0="814.71839" /><rect
       style="fill:#000000"
       id="use231"
       width="188.97638"
       height="188.97638"
       x="555.58917"
       y="803.14575"
       inkscape:tile-x0="381.64546"
       inkscape:tile-y0="814.71839" /><rect
       style="fill:#ffffff"
       id="use232"
       width="188.97638"
       height="188.97638"
       x="555.58917"
       y="992.12219"
       inkscape:tile-x0="381.64546"
       inkscape:tile-y0="814.71839" /><rect
       style="fill:#000000"
       id="use233"
       width="188.97638"
       height="188.97638"
       x="555.58917"
       y="1181.0985"
       inkscape:tile-x0="381.64546"
       inkscape:tile-y0="814.71839" /><rect
       style="fill:#ffffff"
       id="use234"
       width="188.97638"
       height="188.97638"
       x="555.58917"
       y="1370.0748"
       inkscape:tile-x0="381.64546"
       inkscape:tile-y0="814.71839" /><rect
       style="fill:#000000"
       id="use235"
       width="188.97638"
       height="188.97638"
       x="555.58917"
       y="1559.0514"
       inkscape:tile-x0="381.64546"
       inkscape:tile-y0="814.71839" /><rect
       style="fill:#ffffff"
       id="use236"
       width="188.97638"
       height="188.97638"
       x="555.58917"
       y="1748.0277"
       inkscape:tile-x0="381.64546"
       inkscape:tile-y0="814.71839" /><rect
       style="fill:#000000"
       id="use237"
       width="188.97638"
       height="188.97638"
       x="555.58917"
       y="1937.004"
       inkscape:tile-x0="381.64546"
       inkscape:tile-y0="814.71839" /><rect
       style="fill:#ffffff"
       id="use238"
       width="188.97638"
       height="188.97638"
       x="555.58917"
       y="2125.9805"
       inkscape:tile-x0="381.64546"
       inkscape:tile-y0="814.71839" /><rect
       style="fill:#ffffff"
       id="use239"
       width="188.97638"
       height="188.97638"
       x="744.56549"
       y="803.14575"
       inkscape:tile-x0="381.64546"
       inkscape:tile-y0="814.71839" /><rect
       style="fill:#000000"
       id="use240"
       width="188.97638"
       height="188.97638"
       x="744.56549"
       y="992.12219"
       inkscape:tile-x0="381.64546"
       inkscape:tile-y0="814.71839" /><rect
       style="fill:#ffffff"
       id="use241"
       width="188.97638"
       height="188.97638"
       x="744.56549"
       y="1181.0985"
       inkscape:tile-x0="381.64546"
       inkscape:tile-y0="814.71839" /><rect
       style="fill:#000000"
       id="use242"
       width="188.97638"
       height="188.97638"
       x="744.56549"
       y="1370.0748"
       inkscape:tile-x0="381.64546"
       inkscape:tile-y0="814.71839" /><rect
       style="fill:#ffffff"
       id="use243"
       width="188.97638"
       height="188.97638"
       x="744.56549"
       y="1559.0514"
       inkscape:tile-x0="381.64546"
       inkscape:tile-y0="814.71839" /><rect
       style="fill:#000000"
       id="use244"
       width="188.97638"
       height="188.97638"
       x="744.56549"
       y="1748.0277"
       inkscape:tile-x0="381.64546"
       inkscape:tile-y0="814.71839" /><rect
       style="fill:#ffffff"
       id="use245"
       width="188.97638"
       height="188.97638"
       x="744.56549"
       y="1937.004"
       inkscape:tile-x0="381.64546"
       inkscape:tile-y0="814.71839" /><rect
       style="fill:#000000"
       id="use246"
       width="188.97638"
       height="188.97638"
       x="744.56549"
       y="2125.9805"
       inkscape:tile-x0="381.64546"
       inkscape:tile-y0="814.71839" /><rect
       style="fill:#000000"
       id="use247"
       width="188.97638"
       height="188.97638"
       x="933.54187"
       y="803.14575"
       inkscape:tile-x0="381.64546"
       inkscape:tile-y0="814.71839" /><rect
       style="fill:#ffffff"
       id="use248"
       width="188.97638"
       height="188.97638"
       x="933.54187"
       y="992.12219"
       inkscape:tile-x0="381.64546"
       inkscape:tile-y0="814.71839" /><rect
       style="fill:#000000"
       id="use249"
       width="188.97638"
       height="188.97638"
       x="933.54187"
       y="1181.0985"
       inkscape:tile-x0="381.64546"
       inkscape:tile-y0="814.71839" /><rect
       style="fill:#ffffff"
       id="use250"
       width="188.97638"
       height="188.97638"
       x="933.54187"
       y="1370.0748"
       inkscape:tile-x0="381.64546"
       inkscape:tile-y0="814.71839" /><rect
       style="fill:#000000"
       id="use251"
       width="188.97638"
       height="188.97638"
       x="933.54187"
       y="1559.0514"
       inkscape:tile-x0="381.64546"
       inkscape:tile-y0="814.71839" /><rect
       style="fill:#ffffff"
       id="use252"
       width="188.97638"
       height="188.97638"
       x="933.54187"
       y="1748.0277"
       inkscape:tile-x0="381.64546"
       inkscape:tile-y0="814.71839" /><rect
       style="fill:#000000"
       id="use253"
       width="188.97638"
       height="188.97638"
       x="933.54187"
       y="1937.004"
       inkscape:tile-x0="381.64546"
       inkscape:tile-y0="814.71839" /><rect
       style="fill:#ffffff"
       id="use254"
       width="188.97638"
       height="188.97638"
       x="933.54187"
       y="2125.9805"
       inkscape:tile-x0="381.64546"
       inkscape:tile-y0="814.71839" /><rect
       style="fill:#ffffff"
       id="use255"
       width="188.97638"
       height="188.97638"
       x="1122.5182"
       y="803.14575"
       inkscape:tile-x0="381.64546"
       inkscape:tile-y0="814.71839" /><rect
       style="fill:#000000"
       id="use256"
       width="188.97638"
       height="188.97638"
       x="1122.5182"
       y="992.12219"
       inkscape:tile-x0="381.64546"
       inkscape:tile-y0="814.71839" /><rect
       style="fill:#ffffff"
       id="use257"
       width="188.97638"
       height="188.97638"
       x="1122.5182"
       y="1181.0985"
       inkscape:tile-x0="381.64546"
       inkscape:tile-y0="814.71839" /><rect
       style="fill:#000000"
       id="use258"
       width="188.97638"
       height="188.97638"
       x="1122.5182"
       y="1370.0748"
       inkscape:tile-x0="381.64546"
       inkscape:tile-y0="814.71839" /><rect
       style="fill:#ffffff"
       id="use259"
       width="188.97638"
       height="188.97638"
       x="1122.5182"
       y="1559.0514"
       inkscape:tile-x0="381.64546"
       inkscape:tile-y0="814.71839" /><rect
       style="fill:#000000"
       id="use260"
       width="188.97638"
       height="188.97638"
       x="1122.5182"
       y="1748.0277"
       inkscape:tile-x0="381.64546"
       inkscape:tile-y0="814.71839" /><rect
       style="fill:#ffffff"
       id="use261"
       width="188.97638"
       height="188.97638"
       x="1122.5182"
       y="1937.004"
       inkscape:tile-x0="381.64546"
       inkscape:tile-y0="814.71839" /><rect
       style="fill:#000000"
       id="use262"
       width="188.97638"
       height="188.97638"
       x="1122.5182"
       y="2125.9805"
       inkscape:tile-x0="381.64546"
       inkscape:tile-y0="814.71839" /><rect
       style="fill:#000000"
       id="use263"
       width="188.97638"
       height="188.97638"
       x="1311.4946"
       y="803.14575"
       inkscape:tile-x0="381.64546"
       inkscape:tile-y0="814.71839" /><rect
       style="fill:#ffffff"
       id="use264"
       width="188.97638"
       height="188.97638"
       x="1311.4946"
       y="992.12219"
       inkscape:tile-x0="381.64546"
       inkscape:tile-y0="814.71839" /><rect
       style="fill:#000000"
       id="use265"
       width="188.97638"
       height="188.97638"
       x="1311.4946"
       y="1181.0985"
       inkscape:tile-x0="381.64546"
       inkscape:tile-y0="814.71839" /><rect
       style="fill:#ffffff"
       id="use266"
       width="188.97638"
       height="188.97638"
       x="1311.4946"
       y="1370.0748"
       inkscape:tile-x0="381.64546"
       inkscape:tile-y0="814.71839" /><rect
       style="fill:#000000"
       id="use267"
       width="188.97638"
       height="188.97638"
       x="1311.4946"
       y="1559.0514"
       inkscape:tile-x0="381.64546"
       inkscape:tile-y0="814.71839" /><rect
       style="fill:#ffffff"
       id="use268"
       width="188.97638"
       height="188.97638"
       x="1311.4946"
       y="1748.0277"
       inkscape:tile-x0="381.64546"
       inkscape:tile-y0="814.71839" /><rect
       style="fill:#000000"
       id="use269"
       width="188.97638"
       height="188.97638"
       x="1311.4946"
       y="1937.004"
       inkscape:tile-x0="381.64546"
       inkscape:tile-y0="814.71839" /><rect
       style="fill:#ffffff"
       id="use270"
       width="188.97638"
       height="188.97638"
       x="1311.4946"
       y="2125.9805"
       inkscape:tile-x0="381.64546"
       inkscape:tile-y0="814.71839" /><rect
       style="fill:#ffffff"
       id="use271"
       width="188.97638"
       height="188.97638"
       x="1500.4709"
       y="803.14575"
       inkscape:tile-x0="381.64546"
       inkscape:tile-y0="814.71839" /><rect
       style="fill:#000000"
       id="use272"
       width="188.97638"
       height="188.97638"
       x="1500.4709"
       y="992.12219"
       inkscape:tile-x0="381.64546"
       inkscape:tile-y0="814.71839" /><rect
       style="fill:#ffffff"
       id="use273"
       width="188.97638"
       height="188.97638"
       x="1500.4709"
       y="1181.0985"
       inkscape:tile-x0="381.64546"
       inkscape:tile-y0="814.71839" /><rect
       style="fill:#000000"
       id="use274"
       width="188.97638"
       height="188.97638"
       x="1500.4709"
       y="1370.0748"
       inkscape:tile-x0="381.64546"
       inkscape:tile-y0="814.71839" /><rect
       style="fill:#ffffff"
       id="use275"
       width="188.97638"
       height="188.97638"
       x="1500.4709"
       y="1559.0514"
       inkscape:tile-x0="381.64546"
       inkscape:tile-y0="814.71839" /><rect
       style="fill:#000000"
       id="use276"
       width="188.97638"
       height="188.97638"
       x="1500.4709"
       y="1748.0277"
       inkscape:tile-x0="381.64546"
       inkscape:tile-y0="814.71839" /><rect
       style="fill:#ffffff"
       id="use277"
       width="188.97638"
       height="188.97638"
       x="1500.4709"
       y="1937.004"
       inkscape:tile-x0="381.64546"
       inkscape:tile-y0="814.71839" /><rect
       style="fill:#000000"
       id="use278"
       width="188.97638"
       height="188.97638"
       x="1500.4709"
       y="2125.9805"
       inkscape:tile-x0="381.64546"
       inkscape:tile-y0="814.71839" /><rect
       style="fill:#000000"
       id="use279"
       width="188.97638"
       height="188.97638"
       x="1689.4473"
       y="803.14575"
       inkscape:tile-x0="381.64546"
       inkscape:tile-y0="814.71839" /><rect
       style="fill:#ffffff"
       id="use280"
       width="188.97638"
       height="188.97638"
       x="1689.4473"
       y="992.12219"
       inkscape:tile-x0="381.64546"
       inkscape:tile-y0="814.71839" /><rect
       style="fill:#000000"
       id="use281"
       width="188.97638"
       height="188.97638"
       x="1689.4473"
       y="1181.0985"
       inkscape:tile-x0="381.64546"
       inkscape:tile-y0="814.71839" /><rect
       style="fill:#ffffff"
       id="use282"
       width="188.97638"
       height="188.97638"
       x="1689.4473"
       y="1370.0748"
       inkscape:tile-x0="381.64546"
       inkscape:tile-y0="814.71839" /><rect
       style="fill:#000000"
       id="use283"
       width="188.97638"
       height="188.97638"
       x="1689.4473"
       y="1559.0514"
       inkscape:tile-x0="381.64546"
       inkscape:tile-y0="814.71839" /><rect
       style="fill:#ffffff"
       id="use284"
       width="188.97638"
       height="188.97638"
       x="1689.4473"
       y="1748.0277"
       inkscape:tile-x0="381.64546"
       inkscape:tile-y0="814.71839" /><rect
       style="fill:#000000"
       id="use285"
       width="188.97638"
       height="188.97638"
       x="1689.4473"
       y="1937.004"
       inkscape:tile-x0="381.64546"
       inkscape:tile-y0="814.71839" /><rect
       style="fill:#ffffff"
       id="use286"
       width="188.97638"
       height="188.97638"
       x="1689.4473"
       y="2125.9805"
       inkscape:tile-x0="381.64546"
       inkscape:tile-y0="814.71839" /><path
       style="fill:#000000;stroke-width:2.70671"
       d="M -212.47635,1588.8359 V 35.187166 H 1121.9292 2456.3348 V 1588.8359 3142.4846 H 1121.9292 -212.47635 Z m 60.7796,1524.9002 c 6.93371,-2.6607 12.8773,-16.6021 10.90543,-25.5797 -3.62976,-16.5263 -25.6331,-21.7435 -38.29613,-9.0805 -5.8034,5.8035 -6.69984,8.626 -5.3727,16.917 2.50954,15.6775 17.28879,23.6815 32.7634,17.7432 z m 2574.70005,-4.2038 c 13.9586,-13.1134 4.2086,-37.4221 -15.0098,-37.4221 -12.9388,0 -22.033,8.7811 -22.033,21.2745 0,19.6791 22.7345,29.5894 37.0428,16.1476 z m -600.0374,-697.8581 v -94.7347 h 29.7737 29.7738 V 1559.0621 801.1847 h -29.7738 -29.7737 V 706.45002 611.71534 H 1121.9292 420.89264 v 94.73468 94.73468 h -28.42041 -28.4204 v 757.8774 757.8774 h 28.4204 28.42041 v 94.7347 94.7347 h 701.03656 701.0367 z M -145.4854,98.646694 c 8.31728,-9.451505 7.70975,-18.949003 -1.82182,-28.48057 -11.56212,-11.562123 -28.73667,-9.265082 -35.0969,4.694097 -4.84006,10.622784 -3.5395,17.049839 5.22338,25.812719 6.88023,6.88024 9.65222,7.95539 16.91691,6.56146 4.77859,-0.91691 11.42889,-4.78138 14.77843,-8.587706 z m 2563.7328,5.661556 c 19.6465,-10.159623 11.5821,-42.054034 -10.6333,-42.054034 -22.9007,0 -29.9057,31.712902 -9.4734,42.888464 7.3006,3.99312 11.0741,3.83652 20.1067,-0.83443 z"
       id="path308" /><path
       style="fill:#000000;stroke-width:2.70671"
       d="m 426.30605,2408.9675 v -92.028 h 696.97655 696.9766 v 92.028 92.028 H 1123.2826 426.30605 Z m 95.01107,53.4035 c 42.0312,-28.0787 4.33708,-93.0054 -40.82302,-70.3162 -27.98802,14.0617 -29.1895,54.5501 -2.10872,71.0614 12.27035,7.4813 31.10677,7.1544 42.93174,-0.7452 z m 498.19298,-6.8668 c 9.341,-10.0141 10.3901,-12.5866 10.3811,-25.4549 -0.011,-15.9209 -6.182,-28.747 -17.3512,-36.0653 -19.40063,-12.7118 -48.19187,-4.805 -58.26377,16.0008 -7.12426,14.7167 -7.02254,22.0343 0.51398,36.9797 8.063,15.9895 19.97962,22.2251 39.68289,20.7649 13.0437,-0.9666 15.7826,-2.304 25.037,-12.2252 z m 256.0494,7.612 c 18.3116,-11.1647 24.752,-34.5528 14.8579,-53.9563 -6.4016,-12.5544 -16.5864,-19.4624 -31.1072,-21.0991 -42.2822,-4.7659 -62.1647,50.6065 -26.6825,74.3102 11.825,7.8996 30.6614,8.2265 42.9318,0.7452 z m 490.6078,0.4618 c 19.563,-10.2407 26.1942,-37.3751 14.1264,-57.8042 -10.0378,-16.9926 -39.1266,-23.0782 -56.3549,-11.7898 -22.2017,14.547 -23.6767,50.809 -2.7014,66.4109 12.7791,9.5055 30.4594,10.758 44.9299,3.1831 z"
       id="path309" /><path
       style="fill:#000000;stroke-width:2.70671"
       d="m 426.30605,709.15673 v -92.02798 h 696.97655 696.9766 v 92.02798 92.02797 H 1123.2826 426.30605 Z m 92.09937,16.2038 c 19.08363,-9.73574 26.74703,-34.32759 16.8413,-54.04372 -19.00046,-37.81807 -76.4155,-23.42161 -76.4501,19.16938 -0.025,30.80754 31.46623,49.23161 59.6088,34.87434 z m 489.78828,0.7089 c 14.1776,-7.12308 21.7076,-20.20684 21.7076,-37.71808 0,-13.19564 -0.9992,-15.66262 -10.4458,-25.78982 -9.5909,-10.28199 -11.7506,-11.28239 -26.39037,-12.22461 -20.00756,-1.2877 -31.53569,5.10628 -39.04953,21.65853 -6.66269,14.67722 -6.61532,21.94021 0.23538,36.09185 9.56338,19.75529 34.11999,27.9414 53.94272,17.98213 z m 270.2494,-2.51696 c 16.1067,-11.80364 21.4905,-37.65771 11.3165,-54.34438 -16.5146,-27.08599 -56.6871,-25.89647 -71.2155,2.10872 -9.9322,19.14545 -1.5412,45.35137 17.6573,55.14547 11.3407,5.78543 32.3515,4.33811 42.2417,-2.90981 z m 483.1585,3.56588 c 21.2837,-8.8929 30.654,-32.77397 21.224,-54.09186 -6.5558,-14.82055 -15.6332,-21.14258 -32.7137,-22.7838 -25.8385,-2.48275 -43.5344,13.45516 -43.5344,39.20963 0,29.90892 27.8925,49.00235 55.0241,37.66603 z"
       id="path310" /><text
       xml:space="preserve"
       style="fill:#000000"
       x="378.93872"
       y="2149.1238"
       id="text310"><tspan
         sodipodi:role="line"
         id="tspan310"
         x="378.93872"
         y="2149.1238"></tspan></text><text
       xml:space="preserve"
       style="font-size:48px;fill:#ffffff"
       x="369.04068"
       y="2171.2417"
       id="text311"><tspan
         sodipodi:role="line"
         id="tspan311"
         x="369.04068"
         y="2171.2417">1</tspan></text><text
       xml:space="preserve"
       style="font-size:48px;fill:#000000"
       x="370.38135"
       y="1982.6217"
       id="text312"><tspan
         sodipodi:role="line"
         id="tspan312"
         x="370.38135"
         y="1982.6217">2</tspan><tspan
         sodipodi:role="line"
         x="370.38135"
         y="2042.6217"
         id="tspan313" /></text><text
       xml:space="preserve"
       style="font-size:48px;fill:#ffffff"
       x="370.78943"
       y="1794.8738"
       id="text314"><tspan
         sodipodi:role="line"
         id="tspan314"
         x="370.78943"
         y="1794.8738">3</tspan><tspan
         sodipodi:role="line"
         x="370.78943"
         y="1854.8738"
         id="tspan315" /></text><text
       xml:space="preserve"
       style="font-size:48px;fill:#000000"
       x="368.93182"
       y="1596.684"
       id="text316"><tspan
         sodipodi:role="line"
         id="tspan316"
         x="368.93182"
         y="1596.684">4</tspan></text><text
       xml:space="preserve"
       style="font-size:48px;fill:#ffffff"
       x="367.67465"
       y="1417.8491"
       id="text317"><tspan
         sodipodi:role="line"
         id="tspan317"
         x="367.67465"
         y="1417.8491">5</tspan></text><text
       xml:space="preserve"
       style="font-size:48px;fill:#000000"
       x="369.39621"
       y="1220.588"
       id="text318"><tspan
         sodipodi:role="line"
         id="tspan318"
         x="369.39621"
         y="1220.588">6</tspan></text><text
       xml:space="preserve"
       style="font-size:48px;fill:#ffffff"
       x="371.77454"
       y="1039.2386"
       id="text319"><tspan
         sodipodi:role="line"
         id="tspan319"
         x="371.77454"
         y="1039.2386">7</tspan></text><text
       xml:space="preserve"
       style="font-size:48px;fill:#000000"
       x="369.12418"
       y="852.61212"
       id="text320"><tspan
         sodipodi:role="line"
         id="tspan320"
         x="369.12418"
         y="852.61212">8</tspan></text><text
       xml:space="preserve"
       style="font-size:48px;fill:#ffffff"
       x="518.89459"
       y="2303.27"
       id="text321"><tspan
         sodipodi:role="line"
         id="tspan321"
         x="518.89459"
         y="2303.27">a</tspan></text><text
       xml:space="preserve"
       style="font-size:48px;fill:#000000"
       x="710.74225"
       y="2305.9868"
       id="text322"><tspan
         sodipodi:role="line"
         id="tspan322"
         x="710.74225"
         y="2305.9868">b</tspan></text><text
       xml:space="preserve"
       style="font-size:48px;fill:#ffffff"
       x="901.33276"
       y="2304.2656"
       id="text323"><tspan
         sodipodi:role="line"
         id="tspan323"
         x="901.33276"
         y="2304.2656">c</tspan></text><text
       xml:space="preserve"
       style="font-size:48px;fill:#000000"
       x="1089.2166"
       y="2306.3154"
       id="text324"><tspan
         sodipodi:role="line"
         id="tspan324"
         x="1089.2166"
         y="2306.3154">d</tspan></text><text
       xml:space="preserve"
       style="font-size:48px;fill:#ffffff"
       x="1275.9792"
       y="2307.9009"
       id="text325"><tspan
         sodipodi:role="line"
         id="tspan325"
         x="1275.9792"
         y="2307.9009">e</tspan></text><text
       xml:space="preserve"
       style="font-size:48px;fill:#000000"
       x="1478.1895"
       y="2310.1436"
       id="text326"><tspan
         sodipodi:role="line"
         id="tspan326"
         x="1478.1895"
         y="2310.1436">f</tspan></text><text
       xml:space="preserve"
       style="font-size:48px;fill:#ffffff"
       x="1656.3674"
       y="2300.5737"
       id="text327"><tspan
         sodipodi:role="line"
         id="tspan327"
         x="1656.3674"
         y="2300.5737">g</tspan></text><text
       xml:space="preserve"
       style="font-size:48px;fill:#000000"
       x="1847.8867"
       y="2310.936"
       id="text328"><tspan
         sodipodi:role="line"
         id="tspan328"
         x="1847.8867"
         y="2310.936">h</tspan></text></g></svg>
